<svg width="1200" height="630" viewBox="0 0 1200 630" fill="none" xmlns="http://www.w3.org/2000/svg">
<g id="eSided Background" clip-path="url(#clip0_904_2040)">
<rect width="1200" height="630" fill="white"/>
<rect width="1200" height="630" fill="#0886C8" fill-opacity="0.04"/>
<g id="Group 53">
<path id="Union" d="M416.021 664.882L766.122 462L1116.01 664.505L1115.79 1069.89L764.884 1274.17L415 1071.66L416.021 664.882Z" fill="#0886C8" fill-opacity="0.06"/>
<path id="Union_2" d="M520.074 725.048L765.937 582.238L1011.65 724.783L1011.5 1010.14L765.068 1153.93L519.357 1011.39L520.074 725.048Z" fill="#0886C8" fill-opacity="0.04"/>
</g>
<g id="Group 54">
<path id="Union_3" d="M999.541 -98.7969L1527.94 -405L2056.01 -99.3663L2055.68 512.471L1526.07 820.78L998 515.146L999.541 -98.7969Z" fill="#0886C8" fill-opacity="0.04"/>
<path id="Union_4" d="M1156.58 -7.98947L1527.66 -223.529L1898.5 -8.39027L1898.27 422.289L1526.35 639.31L1155.5 424.172L1156.58 -7.98947Z" fill="#0886C8" fill-opacity="0.04"/>
</g>
<g id="Group 49">
<path id="Union_5" d="M-536.129 -300.93L-237.472 -474L61 -301.251L60.8148 44.5678L-238.528 218.828L-537 46.0799L-536.129 -300.93Z" fill="#0886C8" fill-opacity="0.04"/>
</g>
<g id="Frame 135" clip-path="url(#clip1_904_2040)">
<circle id="Ellipse 39" cx="3.4" cy="3.4" r="3.4" transform="matrix(-1.19249e-08 -1 -1 1.19249e-08 665 121)" fill="#0886C8"/>
<circle id="Ellipse 40" cx="3.4" cy="3.4" r="3.4" transform="matrix(-1.19249e-08 -1 -1 1.19249e-08 665 92.1)" fill="#0886C8"/>
<circle id="Ellipse 41" cx="3.4" cy="3.4" r="3.4" transform="matrix(-1.19249e-08 -1 -1 1.19249e-08 665 63.2)" fill="#0886C8"/>
<circle id="Ellipse 42" cx="3.4" cy="3.4" r="3.4" transform="matrix(-1.19249e-08 -1 -1 1.19249e-08 665 34.3)" fill="#0886C8"/>
<circle id="Ellipse 43" cx="3.4" cy="3.4" r="3.4" transform="matrix(-1.19249e-08 -1 -1 1.19249e-08 665 5.40002)" fill="#0886C8"/>
<circle id="Ellipse 45" cx="3.4" cy="3.4" r="3.4" transform="matrix(-1.19249e-08 -1 -1 1.19249e-08 636.1 121)" fill="#0886C8"/>
<circle id="Ellipse 46" cx="3.4" cy="3.4" r="3.4" transform="matrix(-1.19249e-08 -1 -1 1.19249e-08 636.1 92.1)" fill="#0886C8"/>
<circle id="Ellipse 47" cx="3.4" cy="3.4" r="3.4" transform="matrix(-1.19249e-08 -1 -1 1.19249e-08 636.1 63.2)" fill="#0886C8"/>
<circle id="Ellipse 48" cx="3.4" cy="3.4" r="3.4" transform="matrix(-1.19249e-08 -1 -1 1.19249e-08 636.1 34.3)" fill="#0886C8"/>
<circle id="Ellipse 49" cx="3.4" cy="3.4" r="3.4" transform="matrix(-1.19249e-08 -1 -1 1.19249e-08 636.1 5.40002)" fill="#0886C8"/>
<circle id="Ellipse 51" cx="3.4" cy="3.4" r="3.4" transform="matrix(-1.19249e-08 -1 -1 1.19249e-08 607.2 121)" fill="#0886C8"/>
<circle id="Ellipse 52" cx="3.4" cy="3.4" r="3.4" transform="matrix(-1.19249e-08 -1 -1 1.19249e-08 607.2 92.1)" fill="#0886C8"/>
<circle id="Ellipse 53" cx="3.4" cy="3.4" r="3.4" transform="matrix(-1.19249e-08 -1 -1 1.19249e-08 607.2 63.2)" fill="#0886C8"/>
<circle id="Ellipse 54" cx="3.4" cy="3.4" r="3.4" transform="matrix(-1.19249e-08 -1 -1 1.19249e-08 607.2 34.3)" fill="#0886C8"/>
<circle id="Ellipse 55" cx="3.4" cy="3.4" r="3.4" transform="matrix(-1.19249e-08 -1 -1 1.19249e-08 607.2 5.40002)" fill="#0886C8"/>
<circle id="Ellipse 57" cx="3.4" cy="3.4" r="3.4" transform="matrix(-1.19249e-08 -1 -1 1.19249e-08 578.3 121)" fill="#0886C8"/>
<circle id="Ellipse 58" cx="3.4" cy="3.4" r="3.4" transform="matrix(-1.19249e-08 -1 -1 1.19249e-08 578.3 92.1)" fill="#0886C8"/>
<circle id="Ellipse 59" cx="3.4" cy="3.4" r="3.4" transform="matrix(-1.19249e-08 -1 -1 1.19249e-08 578.3 63.2)" fill="#0886C8"/>
<circle id="Ellipse 60" cx="3.4" cy="3.4" r="3.4" transform="matrix(-1.19249e-08 -1 -1 1.19249e-08 578.3 34.3)" fill="#0886C8"/>
<circle id="Ellipse 61" cx="3.4" cy="3.4" r="3.4" transform="matrix(-1.19249e-08 -1 -1 1.19249e-08 578.3 5.40002)" fill="#0886C8"/>
<circle id="Ellipse 63" cx="3.4" cy="3.4" r="3.4" transform="matrix(-1.19249e-08 -1 -1 1.19249e-08 549.4 121)" fill="#0886C8"/>
<circle id="Ellipse 64" cx="3.4" cy="3.4" r="3.4" transform="matrix(-1.19249e-08 -1 -1 1.19249e-08 549.4 92.1)" fill="#0886C8"/>
<circle id="Ellipse 65" cx="3.4" cy="3.4" r="3.4" transform="matrix(-1.19249e-08 -1 -1 1.19249e-08 549.4 63.2)" fill="#0886C8"/>
<circle id="Ellipse 66" cx="3.4" cy="3.4" r="3.4" transform="matrix(-1.19249e-08 -1 -1 1.19249e-08 549.4 34.3)" fill="#0886C8"/>
<circle id="Ellipse 67" cx="3.4" cy="3.4" r="3.4" transform="matrix(-1.19249e-08 -1 -1 1.19249e-08 549.4 5.40002)" fill="#0886C8"/>
<circle id="Ellipse 69" cx="3.4" cy="3.4" r="3.4" transform="matrix(-1.19249e-08 -1 -1 1.19249e-08 520.5 121)" fill="#0886C8"/>
<circle id="Ellipse 70" cx="3.4" cy="3.4" r="3.4" transform="matrix(-1.19249e-08 -1 -1 1.19249e-08 520.5 92.1)" fill="#0886C8"/>
<circle id="Ellipse 71" cx="3.4" cy="3.4" r="3.4" transform="matrix(-1.19249e-08 -1 -1 1.19249e-08 520.5 63.2)" fill="#0886C8"/>
<circle id="Ellipse 72" cx="3.4" cy="3.4" r="3.4" transform="matrix(-1.19249e-08 -1 -1 1.19249e-08 520.5 34.3)" fill="#0886C8"/>
<circle id="Ellipse 73" cx="3.4" cy="3.4" r="3.4" transform="matrix(-1.19249e-08 -1 -1 1.19249e-08 520.5 5.40002)" fill="#0886C8"/>
<circle id="Ellipse 75" cx="3.4" cy="3.4" r="3.4" transform="matrix(-1.19249e-08 -1 -1 1.19249e-08 491.6 121)" fill="#0886C8"/>
<circle id="Ellipse 76" cx="3.4" cy="3.4" r="3.4" transform="matrix(-1.19249e-08 -1 -1 1.19249e-08 491.6 92.1)" fill="#0886C8"/>
<circle id="Ellipse 77" cx="3.4" cy="3.4" r="3.4" transform="matrix(-1.19249e-08 -1 -1 1.19249e-08 491.6 63.2)" fill="#0886C8"/>
<circle id="Ellipse 117" cx="3.4" cy="3.4" r="3.4" transform="matrix(-1.19249e-08 -1 -1 1.19249e-08 491.6 34.3)" fill="#0886C8"/>
<circle id="Ellipse 118" cx="3.4" cy="3.4" r="3.4" transform="matrix(-1.19249e-08 -1 -1 1.19249e-08 491.6 5.40002)" fill="#0886C8"/>
<circle id="Ellipse 120" cx="3.4" cy="3.4" r="3.4" transform="matrix(-1.19249e-08 -1 -1 1.19249e-08 462.7 121)" fill="#0886C8"/>
<circle id="Ellipse 121" cx="3.4" cy="3.4" r="3.4" transform="matrix(-1.19249e-08 -1 -1 1.19249e-08 462.7 92.1)" fill="#0886C8"/>
<circle id="Ellipse 122" cx="3.4" cy="3.4" r="3.4" transform="matrix(-1.19249e-08 -1 -1 1.19249e-08 462.7 63.2)" fill="#0886C8"/>
<circle id="Ellipse 123" cx="3.4" cy="3.4" r="3.4" transform="matrix(-1.19249e-08 -1 -1 1.19249e-08 462.7 34.3)" fill="#0886C8"/>
<circle id="Ellipse 124" cx="3.4" cy="3.4" r="3.4" transform="matrix(-1.19249e-08 -1 -1 1.19249e-08 462.7 5.40002)" fill="#0886C8"/>
<circle id="Ellipse 126" cx="3.4" cy="3.4" r="3.4" transform="matrix(-1.19249e-08 -1 -1 1.19249e-08 433.8 121)" fill="#0886C8"/>
<circle id="Ellipse 127" cx="3.4" cy="3.4" r="3.4" transform="matrix(-1.19249e-08 -1 -1 1.19249e-08 433.8 92.1)" fill="#0886C8"/>
<circle id="Ellipse 128" cx="3.4" cy="3.4" r="3.4" transform="matrix(-1.19249e-08 -1 -1 1.19249e-08 433.8 63.2)" fill="#0886C8"/>
<circle id="Ellipse 129" cx="3.4" cy="3.4" r="3.4" transform="matrix(-1.19249e-08 -1 -1 1.19249e-08 433.8 34.3)" fill="#0886C8"/>
<circle id="Ellipse 130" cx="3.4" cy="3.4" r="3.4" transform="matrix(-1.19249e-08 -1 -1 1.19249e-08 433.8 5.40002)" fill="#0886C8"/>
<circle id="Ellipse 132" cx="3.4" cy="3.4" r="3.4" transform="matrix(-1.19249e-08 -1 -1 1.19249e-08 404.9 121)" fill="#0886C8"/>
<circle id="Ellipse 133" cx="3.4" cy="3.4" r="3.4" transform="matrix(-1.19249e-08 -1 -1 1.19249e-08 404.9 92.1)" fill="#0886C8"/>
<circle id="Ellipse 134" cx="3.4" cy="3.4" r="3.4" transform="matrix(-1.19249e-08 -1 -1 1.19249e-08 404.9 63.2)" fill="#0886C8"/>
<circle id="Ellipse 135" cx="3.4" cy="3.4" r="3.4" transform="matrix(-1.19249e-08 -1 -1 1.19249e-08 404.9 34.3)" fill="#0886C8"/>
<circle id="Ellipse 136" cx="3.4" cy="3.4" r="3.4" transform="matrix(-1.19249e-08 -1 -1 1.19249e-08 404.9 5.40002)" fill="#0886C8"/>
<circle id="Ellipse 78" cx="3.4" cy="3.4" r="3.4" transform="matrix(-1.19249e-08 -1 -1 1.19249e-08 376 121)" fill="#0886C8"/>
<circle id="Ellipse 79" cx="3.4" cy="3.4" r="3.4" transform="matrix(-1.19249e-08 -1 -1 1.19249e-08 376 92.1)" fill="#0886C8"/>
<circle id="Ellipse 80" cx="3.4" cy="3.4" r="3.4" transform="matrix(-1.19249e-08 -1 -1 1.19249e-08 376 63.2)" fill="#0886C8"/>
<circle id="Ellipse 81" cx="3.4" cy="3.4" r="3.4" transform="matrix(-1.19249e-08 -1 -1 1.19249e-08 376 34.3)" fill="#0886C8"/>
<circle id="Ellipse 82" cx="3.4" cy="3.4" r="3.4" transform="matrix(-1.19249e-08 -1 -1 1.19249e-08 376 5.40002)" fill="#0886C8"/>
<circle id="Ellipse 84" cx="3.4" cy="3.4" r="3.4" transform="matrix(-1.19249e-08 -1 -1 1.19249e-08 347.1 121)" fill="#0886C8"/>
<circle id="Ellipse 85" cx="3.4" cy="3.4" r="3.4" transform="matrix(-1.19249e-08 -1 -1 1.19249e-08 347.1 92.1)" fill="#0886C8"/>
<circle id="Ellipse 86" cx="3.4" cy="3.4" r="3.4" transform="matrix(-1.19249e-08 -1 -1 1.19249e-08 347.1 63.2)" fill="#0886C8"/>
<circle id="Ellipse 87" cx="3.4" cy="3.4" r="3.4" transform="matrix(-1.19249e-08 -1 -1 1.19249e-08 347.1 34.3)" fill="#0886C8"/>
<circle id="Ellipse 88" cx="3.4" cy="3.4" r="3.4" transform="matrix(-1.19249e-08 -1 -1 1.19249e-08 347.1 5.40002)" fill="#0886C8"/>
<circle id="Ellipse 90" cx="3.4" cy="3.4" r="3.4" transform="matrix(-1.19249e-08 -1 -1 1.19249e-08 318.2 121)" fill="#0886C8"/>
<circle id="Ellipse 91" cx="3.4" cy="3.4" r="3.4" transform="matrix(-1.19249e-08 -1 -1 1.19249e-08 318.2 92.1)" fill="#0886C8"/>
<circle id="Ellipse 92" cx="3.4" cy="3.4" r="3.4" transform="matrix(-1.19249e-08 -1 -1 1.19249e-08 318.2 63.2)" fill="#0886C8"/>
<circle id="Ellipse 93" cx="3.4" cy="3.4" r="3.4" transform="matrix(-1.19249e-08 -1 -1 1.19249e-08 318.2 34.3)" fill="#0886C8"/>
<circle id="Ellipse 94" cx="3.4" cy="3.4" r="3.4" transform="matrix(-1.19249e-08 -1 -1 1.19249e-08 318.2 5.40002)" fill="#0886C8"/>
</g>
<path id="Union_6" d="M1076.15 408.477L1127.09 379L1178 408.422L1177.97 467.321L1126.91 497L1076 467.578L1076.15 408.477Z" fill="#0886C8" fill-opacity="0.04"/>
<g id="Frame 255">
<rect x="53" y="49" width="97" height="97" rx="48.5" fill="#0886C8"/>
<path id="e" d="M102.416 120.572C97.936 120.572 94.0664 119.641 90.8079 117.779C87.5687 115.897 85.0763 113.24 83.3306 109.807C81.585 106.354 80.7122 102.291 80.7122 97.6163C80.7122 93.0194 81.585 88.985 83.3306 85.5131C85.0957 82.0218 87.559 79.3064 90.7206 77.3667C93.8822 75.4077 97.5965 74.4282 101.864 74.4282C104.618 74.4282 107.217 74.8743 109.661 75.7666C112.124 76.6394 114.297 77.9971 116.178 79.8398C118.079 81.6824 119.572 84.0293 120.659 86.8806C121.745 89.7124 122.288 93.0873 122.288 97.0053V100.235H85.6582V93.1358H112.192C112.173 91.1186 111.736 89.3245 110.883 87.7534C110.029 86.1629 108.837 84.9118 107.304 84.0002C105.791 83.0886 104.026 82.6328 102.009 82.6328C99.8562 82.6328 97.965 83.1565 96.3358 84.2039C94.7065 85.2319 93.436 86.5896 92.5244 88.2771C91.6322 89.9452 91.1764 91.7781 91.157 93.7759V99.973C91.157 102.572 91.6322 104.803 92.5826 106.665C93.533 108.507 94.8617 109.923 96.5685 110.912C98.2754 111.882 100.273 112.367 102.562 112.367C104.094 112.367 105.481 112.154 106.722 111.727C107.964 111.281 109.04 110.631 109.952 109.778C110.863 108.924 111.552 107.867 112.018 106.606L121.851 107.712C121.231 110.311 120.048 112.58 118.302 114.52C116.576 116.44 114.365 117.934 111.668 119.001C108.972 120.048 105.888 120.572 102.416 120.572Z" fill="white"/>
</g>
</g>
<defs>
<clipPath id="clip0_904_2040">
<rect width="1200" height="630" fill="white"/>
</clipPath>
<clipPath id="clip1_904_2040">
<rect width="163" height="362" fill="white" transform="matrix(-1.19249e-08 -1 -1 1.19249e-08 665 121)"/>
</clipPath>
</defs>
</svg>
