<svg width="1200" height="630" viewBox="0 0 1200 630" fill="none" xmlns="http://www.w3.org/2000/svg">
<g clip-path="url(#clip0_904_2315)">
<rect width="1200" height="630" fill="white"/>
<rect width="1200" height="630" fill="#0886C8" fill-opacity="0.04"/>
<path d="M416.021 664.882L766.122 462L1116.01 664.505L1115.79 1069.89L764.884 1274.17L415 1071.66L416.021 664.882Z" fill="#0886C8" fill-opacity="0.06"/>
<path d="M520.074 725.048L765.937 582.238L1011.65 724.783L1011.5 1010.14L765.068 1153.93L519.357 1011.39L520.074 725.048Z" fill="#0886C8" fill-opacity="0.04"/>
<path d="M999.541 -98.7969L1527.94 -405L2056.01 -99.3663L2055.68 512.471L1526.07 820.78L998 515.146L999.541 -98.7969Z" fill="#0886C8" fill-opacity="0.04"/>
<path d="M1156.58 -7.98947L1527.66 -223.529L1898.5 -8.39027L1898.27 422.289L1526.35 639.31L1155.5 424.172L1156.58 -7.98947Z" fill="#0886C8" fill-opacity="0.04"/>
<path d="M-536.129 -300.93L-237.472 -474L61 -301.251L60.8148 44.5678L-238.528 218.828L-537 46.0799L-536.129 -300.93Z" fill="#0886C8" fill-opacity="0.04"/>
<g clip-path="url(#clip1_904_2315)">
<circle cx="3.4" cy="3.4" r="3.4" transform="matrix(-1.19249e-08 -1 -1 1.19249e-08 665 121)" fill="#0886C8"/>
<circle cx="3.4" cy="3.4" r="3.4" transform="matrix(-1.19249e-08 -1 -1 1.19249e-08 665 92.1)" fill="#0886C8"/>
<circle cx="3.4" cy="3.4" r="3.4" transform="matrix(-1.19249e-08 -1 -1 1.19249e-08 665 63.2)" fill="#0886C8"/>
<circle cx="3.4" cy="3.4" r="3.4" transform="matrix(-1.19249e-08 -1 -1 1.19249e-08 665 34.3)" fill="#0886C8"/>
<circle cx="3.4" cy="3.4" r="3.4" transform="matrix(-1.19249e-08 -1 -1 1.19249e-08 665 5.40002)" fill="#0886C8"/>
<circle cx="3.4" cy="3.4" r="3.4" transform="matrix(-1.19249e-08 -1 -1 1.19249e-08 636.1 121)" fill="#0886C8"/>
<circle cx="3.4" cy="3.4" r="3.4" transform="matrix(-1.19249e-08 -1 -1 1.19249e-08 636.1 92.1)" fill="#0886C8"/>
<circle cx="3.4" cy="3.4" r="3.4" transform="matrix(-1.19249e-08 -1 -1 1.19249e-08 636.1 63.2)" fill="#0886C8"/>
<circle cx="3.4" cy="3.4" r="3.4" transform="matrix(-1.19249e-08 -1 -1 1.19249e-08 636.1 34.3)" fill="#0886C8"/>
<circle cx="3.4" cy="3.4" r="3.4" transform="matrix(-1.19249e-08 -1 -1 1.19249e-08 636.1 5.40002)" fill="#0886C8"/>
<circle cx="3.4" cy="3.4" r="3.4" transform="matrix(-1.19249e-08 -1 -1 1.19249e-08 607.2 121)" fill="#0886C8"/>
<circle cx="3.4" cy="3.4" r="3.4" transform="matrix(-1.19249e-08 -1 -1 1.19249e-08 607.2 92.1)" fill="#0886C8"/>
<circle cx="3.4" cy="3.4" r="3.4" transform="matrix(-1.19249e-08 -1 -1 1.19249e-08 607.2 63.2)" fill="#0886C8"/>
<circle cx="3.4" cy="3.4" r="3.4" transform="matrix(-1.19249e-08 -1 -1 1.19249e-08 607.2 34.3)" fill="#0886C8"/>
<circle cx="3.4" cy="3.4" r="3.4" transform="matrix(-1.19249e-08 -1 -1 1.19249e-08 607.2 5.40002)" fill="#0886C8"/>
<circle cx="3.4" cy="3.4" r="3.4" transform="matrix(-1.19249e-08 -1 -1 1.19249e-08 578.3 121)" fill="#0886C8"/>
<circle cx="3.4" cy="3.4" r="3.4" transform="matrix(-1.19249e-08 -1 -1 1.19249e-08 578.3 92.1)" fill="#0886C8"/>
<circle cx="3.4" cy="3.4" r="3.4" transform="matrix(-1.19249e-08 -1 -1 1.19249e-08 578.3 63.2)" fill="#0886C8"/>
<circle cx="3.4" cy="3.4" r="3.4" transform="matrix(-1.19249e-08 -1 -1 1.19249e-08 578.3 34.3)" fill="#0886C8"/>
<circle cx="3.4" cy="3.4" r="3.4" transform="matrix(-1.19249e-08 -1 -1 1.19249e-08 578.3 5.40002)" fill="#0886C8"/>
<circle cx="3.4" cy="3.4" r="3.4" transform="matrix(-1.19249e-08 -1 -1 1.19249e-08 549.4 121)" fill="#0886C8"/>
<circle cx="3.4" cy="3.4" r="3.4" transform="matrix(-1.19249e-08 -1 -1 1.19249e-08 549.4 92.1)" fill="#0886C8"/>
<circle cx="3.4" cy="3.4" r="3.4" transform="matrix(-1.19249e-08 -1 -1 1.19249e-08 549.4 63.2)" fill="#0886C8"/>
<circle cx="3.4" cy="3.4" r="3.4" transform="matrix(-1.19249e-08 -1 -1 1.19249e-08 549.4 34.3)" fill="#0886C8"/>
<circle cx="3.4" cy="3.4" r="3.4" transform="matrix(-1.19249e-08 -1 -1 1.19249e-08 549.4 5.40002)" fill="#0886C8"/>
<circle cx="3.4" cy="3.4" r="3.4" transform="matrix(-1.19249e-08 -1 -1 1.19249e-08 520.5 121)" fill="#0886C8"/>
<circle cx="3.4" cy="3.4" r="3.4" transform="matrix(-1.19249e-08 -1 -1 1.19249e-08 520.5 92.1)" fill="#0886C8"/>
<circle cx="3.4" cy="3.4" r="3.4" transform="matrix(-1.19249e-08 -1 -1 1.19249e-08 520.5 63.2)" fill="#0886C8"/>
<circle cx="3.4" cy="3.4" r="3.4" transform="matrix(-1.19249e-08 -1 -1 1.19249e-08 520.5 34.3)" fill="#0886C8"/>
<circle cx="3.4" cy="3.4" r="3.4" transform="matrix(-1.19249e-08 -1 -1 1.19249e-08 520.5 5.40002)" fill="#0886C8"/>
<circle cx="3.4" cy="3.4" r="3.4" transform="matrix(-1.19249e-08 -1 -1 1.19249e-08 491.6 121)" fill="#0886C8"/>
<circle cx="3.4" cy="3.4" r="3.4" transform="matrix(-1.19249e-08 -1 -1 1.19249e-08 491.6 92.1)" fill="#0886C8"/>
<circle cx="3.4" cy="3.4" r="3.4" transform="matrix(-1.19249e-08 -1 -1 1.19249e-08 491.6 63.2)" fill="#0886C8"/>
<circle cx="3.4" cy="3.4" r="3.4" transform="matrix(-1.19249e-08 -1 -1 1.19249e-08 491.6 34.3)" fill="#0886C8"/>
<circle cx="3.4" cy="3.4" r="3.4" transform="matrix(-1.19249e-08 -1 -1 1.19249e-08 491.6 5.40002)" fill="#0886C8"/>
<circle cx="3.4" cy="3.4" r="3.4" transform="matrix(-1.19249e-08 -1 -1 1.19249e-08 462.7 121)" fill="#0886C8"/>
<circle cx="3.4" cy="3.4" r="3.4" transform="matrix(-1.19249e-08 -1 -1 1.19249e-08 462.7 92.1)" fill="#0886C8"/>
<circle cx="3.4" cy="3.4" r="3.4" transform="matrix(-1.19249e-08 -1 -1 1.19249e-08 462.7 63.2)" fill="#0886C8"/>
<circle cx="3.4" cy="3.4" r="3.4" transform="matrix(-1.19249e-08 -1 -1 1.19249e-08 462.7 34.3)" fill="#0886C8"/>
<circle cx="3.4" cy="3.4" r="3.4" transform="matrix(-1.19249e-08 -1 -1 1.19249e-08 462.7 5.40002)" fill="#0886C8"/>
<circle cx="3.4" cy="3.4" r="3.4" transform="matrix(-1.19249e-08 -1 -1 1.19249e-08 433.8 121)" fill="#0886C8"/>
<circle cx="3.4" cy="3.4" r="3.4" transform="matrix(-1.19249e-08 -1 -1 1.19249e-08 433.8 92.1)" fill="#0886C8"/>
<circle cx="3.4" cy="3.4" r="3.4" transform="matrix(-1.19249e-08 -1 -1 1.19249e-08 433.8 63.2)" fill="#0886C8"/>
<circle cx="3.4" cy="3.4" r="3.4" transform="matrix(-1.19249e-08 -1 -1 1.19249e-08 433.8 34.3)" fill="#0886C8"/>
<circle cx="3.4" cy="3.4" r="3.4" transform="matrix(-1.19249e-08 -1 -1 1.19249e-08 433.8 5.40002)" fill="#0886C8"/>
<circle cx="3.4" cy="3.4" r="3.4" transform="matrix(-1.19249e-08 -1 -1 1.19249e-08 404.9 121)" fill="#0886C8"/>
<circle cx="3.4" cy="3.4" r="3.4" transform="matrix(-1.19249e-08 -1 -1 1.19249e-08 404.9 92.1)" fill="#0886C8"/>
<circle cx="3.4" cy="3.4" r="3.4" transform="matrix(-1.19249e-08 -1 -1 1.19249e-08 404.9 63.2)" fill="#0886C8"/>
<circle cx="3.4" cy="3.4" r="3.4" transform="matrix(-1.19249e-08 -1 -1 1.19249e-08 404.9 34.3)" fill="#0886C8"/>
<circle cx="3.4" cy="3.4" r="3.4" transform="matrix(-1.19249e-08 -1 -1 1.19249e-08 404.9 5.40002)" fill="#0886C8"/>
<circle cx="3.4" cy="3.4" r="3.4" transform="matrix(-1.19249e-08 -1 -1 1.19249e-08 376 121)" fill="#0886C8"/>
<circle cx="3.4" cy="3.4" r="3.4" transform="matrix(-1.19249e-08 -1 -1 1.19249e-08 376 92.1)" fill="#0886C8"/>
<circle cx="3.4" cy="3.4" r="3.4" transform="matrix(-1.19249e-08 -1 -1 1.19249e-08 376 63.2)" fill="#0886C8"/>
<circle cx="3.4" cy="3.4" r="3.4" transform="matrix(-1.19249e-08 -1 -1 1.19249e-08 376 34.3)" fill="#0886C8"/>
<circle cx="3.4" cy="3.4" r="3.4" transform="matrix(-1.19249e-08 -1 -1 1.19249e-08 376 5.40002)" fill="#0886C8"/>
<circle cx="3.4" cy="3.4" r="3.4" transform="matrix(-1.19249e-08 -1 -1 1.19249e-08 347.1 121)" fill="#0886C8"/>
<circle cx="3.4" cy="3.4" r="3.4" transform="matrix(-1.19249e-08 -1 -1 1.19249e-08 347.1 92.1)" fill="#0886C8"/>
<circle cx="3.4" cy="3.4" r="3.4" transform="matrix(-1.19249e-08 -1 -1 1.19249e-08 347.1 63.2)" fill="#0886C8"/>
<circle cx="3.4" cy="3.4" r="3.4" transform="matrix(-1.19249e-08 -1 -1 1.19249e-08 347.1 34.3)" fill="#0886C8"/>
<circle cx="3.4" cy="3.4" r="3.4" transform="matrix(-1.19249e-08 -1 -1 1.19249e-08 347.1 5.40002)" fill="#0886C8"/>
<circle cx="3.4" cy="3.4" r="3.4" transform="matrix(-1.19249e-08 -1 -1 1.19249e-08 318.2 121)" fill="#0886C8"/>
<circle cx="3.4" cy="3.4" r="3.4" transform="matrix(-1.19249e-08 -1 -1 1.19249e-08 318.2 92.1)" fill="#0886C8"/>
<circle cx="3.4" cy="3.4" r="3.4" transform="matrix(-1.19249e-08 -1 -1 1.19249e-08 318.2 63.2)" fill="#0886C8"/>
<circle cx="3.4" cy="3.4" r="3.4" transform="matrix(-1.19249e-08 -1 -1 1.19249e-08 318.2 34.3)" fill="#0886C8"/>
<circle cx="3.4" cy="3.4" r="3.4" transform="matrix(-1.19249e-08 -1 -1 1.19249e-08 318.2 5.40002)" fill="#0886C8"/>
</g>
<path d="M1076.15 408.477L1127.09 379L1178 408.422L1177.97 467.321L1126.91 497L1076 467.578L1076.15 408.477Z" fill="#0886C8" fill-opacity="0.04"/>
</g>
<defs>
<clipPath id="clip0_904_2315">
<rect width="1200" height="630" fill="white"/>
</clipPath>
<clipPath id="clip1_904_2315">
<rect width="163" height="362" fill="white" transform="matrix(-1.19249e-08 -1 -1 1.19249e-08 665 121)"/>
</clipPath>
</defs>
</svg>
