<svg width="1920" height="1080" viewBox="0 0 1280 720" fill="none" xmlns="http://www.w3.org/2000/svg">
<g clip-path="url(#clip0)">
<!-- White base -->
<rect width="1280" height="720" fill="white"/>
<!-- Subtle blue wash -->
<rect width="1280" height="720" fill="#0886C8" fill-opacity="0.04"/>

<!-- Large hexagon, bottom-center, mostly off-canvas -->
<path d="M440 760L800 550L1160 760L1159.8 1180L799 1420L439 1180L440 760Z" fill="#0886C8" fill-opacity="0.06"/>
<path d="M550 825L800 680L1050 825L1049.8 1115L799 1260L549 1115L550 825Z" fill="#0886C8" fill-opacity="0.04"/>

<!-- Large hexagon, top-right, partially off-canvas -->
<path d="M1050 -120L1600 -480L2150 -120L2149.6 600L1598 950L1048 600L1050 -120Z" fill="#0886C8" fill-opacity="0.04"/>
<path d="M1210 -25L1600 -260L1990 -25L1989.8 490L1598 725L1208 490L1210 -25Z" fill="#0886C8" fill-opacity="0.04"/>

<!-- Small hexagon, top-left, partially off-canvas -->
<path d="M-560 -320L-250 -500L65 -320L64.8 60L-252 240L-561 60L-560 -320Z" fill="#0886C8" fill-opacity="0.04"/>

<!-- Dot grid cluster, upper-center area -->
<g clip-path="url(#clip1)" opacity="0.12">
<circle cx="3.4" cy="3.4" r="3.4" transform="translate(710 2)" fill="#0886C8"/>
<circle cx="3.4" cy="3.4" r="3.4" transform="translate(710 31)" fill="#0886C8"/>
<circle cx="3.4" cy="3.4" r="3.4" transform="translate(710 60)" fill="#0886C8"/>
<circle cx="3.4" cy="3.4" r="3.4" transform="translate(710 89)" fill="#0886C8"/>
<circle cx="3.4" cy="3.4" r="3.4" transform="translate(710 118)" fill="#0886C8"/>
<circle cx="3.4" cy="3.4" r="3.4" transform="translate(739 2)" fill="#0886C8"/>
<circle cx="3.4" cy="3.4" r="3.4" transform="translate(739 31)" fill="#0886C8"/>
<circle cx="3.4" cy="3.4" r="3.4" transform="translate(739 60)" fill="#0886C8"/>
<circle cx="3.4" cy="3.4" r="3.4" transform="translate(739 89)" fill="#0886C8"/>
<circle cx="3.4" cy="3.4" r="3.4" transform="translate(739 118)" fill="#0886C8"/>
<circle cx="3.4" cy="3.4" r="3.4" transform="translate(768 2)" fill="#0886C8"/>
<circle cx="3.4" cy="3.4" r="3.4" transform="translate(768 31)" fill="#0886C8"/>
<circle cx="3.4" cy="3.4" r="3.4" transform="translate(768 60)" fill="#0886C8"/>
<circle cx="3.4" cy="3.4" r="3.4" transform="translate(768 89)" fill="#0886C8"/>
<circle cx="3.4" cy="3.4" r="3.4" transform="translate(768 118)" fill="#0886C8"/>
<circle cx="3.4" cy="3.4" r="3.4" transform="translate(797 2)" fill="#0886C8"/>
<circle cx="3.4" cy="3.4" r="3.4" transform="translate(797 31)" fill="#0886C8"/>
<circle cx="3.4" cy="3.4" r="3.4" transform="translate(797 60)" fill="#0886C8"/>
<circle cx="3.4" cy="3.4" r="3.4" transform="translate(797 89)" fill="#0886C8"/>
<circle cx="3.4" cy="3.4" r="3.4" transform="translate(797 118)" fill="#0886C8"/>
<circle cx="3.4" cy="3.4" r="3.4" transform="translate(826 2)" fill="#0886C8"/>
<circle cx="3.4" cy="3.4" r="3.4" transform="translate(826 31)" fill="#0886C8"/>
<circle cx="3.4" cy="3.4" r="3.4" transform="translate(826 60)" fill="#0886C8"/>
<circle cx="3.4" cy="3.4" r="3.4" transform="translate(826 89)" fill="#0886C8"/>
<circle cx="3.4" cy="3.4" r="3.4" transform="translate(826 118)" fill="#0886C8"/>
<circle cx="3.4" cy="3.4" r="3.4" transform="translate(855 2)" fill="#0886C8"/>
<circle cx="3.4" cy="3.4" r="3.4" transform="translate(855 31)" fill="#0886C8"/>
<circle cx="3.4" cy="3.4" r="3.4" transform="translate(855 60)" fill="#0886C8"/>
<circle cx="3.4" cy="3.4" r="3.4" transform="translate(855 89)" fill="#0886C8"/>
<circle cx="3.4" cy="3.4" r="3.4" transform="translate(855 118)" fill="#0886C8"/>
<circle cx="3.4" cy="3.4" r="3.4" transform="translate(884 2)" fill="#0886C8"/>
<circle cx="3.4" cy="3.4" r="3.4" transform="translate(884 31)" fill="#0886C8"/>
<circle cx="3.4" cy="3.4" r="3.4" transform="translate(884 60)" fill="#0886C8"/>
<circle cx="3.4" cy="3.4" r="3.4" transform="translate(884 89)" fill="#0886C8"/>
<circle cx="3.4" cy="3.4" r="3.4" transform="translate(884 118)" fill="#0886C8"/>
<circle cx="3.4" cy="3.4" r="3.4" transform="translate(913 2)" fill="#0886C8"/>
<circle cx="3.4" cy="3.4" r="3.4" transform="translate(913 31)" fill="#0886C8"/>
<circle cx="3.4" cy="3.4" r="3.4" transform="translate(913 60)" fill="#0886C8"/>
<circle cx="3.4" cy="3.4" r="3.4" transform="translate(913 89)" fill="#0886C8"/>
<circle cx="3.4" cy="3.4" r="3.4" transform="translate(913 118)" fill="#0886C8"/>
<circle cx="3.4" cy="3.4" r="3.4" transform="translate(942 2)" fill="#0886C8"/>
<circle cx="3.4" cy="3.4" r="3.4" transform="translate(942 31)" fill="#0886C8"/>
<circle cx="3.4" cy="3.4" r="3.4" transform="translate(942 60)" fill="#0886C8"/>
<circle cx="3.4" cy="3.4" r="3.4" transform="translate(942 89)" fill="#0886C8"/>
<circle cx="3.4" cy="3.4" r="3.4" transform="translate(942 118)" fill="#0886C8"/>
<circle cx="3.4" cy="3.4" r="3.4" transform="translate(971 2)" fill="#0886C8"/>
<circle cx="3.4" cy="3.4" r="3.4" transform="translate(971 31)" fill="#0886C8"/>
<circle cx="3.4" cy="3.4" r="3.4" transform="translate(971 60)" fill="#0886C8"/>
<circle cx="3.4" cy="3.4" r="3.4" transform="translate(971 89)" fill="#0886C8"/>
<circle cx="3.4" cy="3.4" r="3.4" transform="translate(971 118)" fill="#0886C8"/>
</g>

<!-- Small accent hexagon, right side -->
<path d="M1150 470L1200 440L1250 470L1249.9 530L1199 560L1149 530L1150 470Z" fill="#0886C8" fill-opacity="0.05"/>

<!-- Small accent hexagon, bottom-left -->
<path d="M80 620L130 590L180 620L179.9 680L129 710L79 680L80 620Z" fill="#0886C8" fill-opacity="0.04"/>

<!-- "e" logo badge, bottom-right corner (80px, scaled from original 97px) -->
<g transform="translate(1185 625) scale(0.824)">
<g transform="translate(-53 -49)">
<rect x="53" y="49" width="97" height="97" rx="48.5" fill="#0886C8"/>
<path d="M102.416 120.572C97.936 120.572 94.0664 119.641 90.8079 117.779C87.5687 115.897 85.0763 113.24 83.3306 109.807C81.585 106.354 80.7122 102.291 80.7122 97.6163C80.7122 93.0194 81.585 88.985 83.3306 85.5131C85.0957 82.0218 87.559 79.3064 90.7206 77.3667C93.8822 75.4077 97.5965 74.4282 101.864 74.4282C104.618 74.4282 107.217 74.8743 109.661 75.7666C112.124 76.6394 114.297 77.9971 116.178 79.8398C118.079 81.6824 119.572 84.0293 120.659 86.8806C121.745 89.7124 122.288 93.0873 122.288 97.0053V100.235H85.6582V93.1358H112.192C112.173 91.1186 111.736 89.3245 110.883 87.7534C110.029 86.1629 108.837 84.9118 107.304 84.0002C105.791 83.0886 104.026 82.6328 102.009 82.6328C99.8562 82.6328 97.965 83.1565 96.3358 84.2039C94.7065 85.2319 93.436 86.5896 92.5244 88.2771C91.6322 89.9452 91.1764 91.7781 91.157 93.7759V99.973C91.157 102.572 91.6322 104.803 92.5826 106.665C93.533 108.507 94.8617 109.923 96.5685 110.912C98.2754 111.882 100.273 112.367 102.562 112.367C104.094 112.367 105.481 112.154 106.722 111.727C107.964 111.281 109.04 110.631 109.952 109.778C110.863 108.924 111.552 107.867 112.018 106.606L121.851 107.712C121.231 110.311 120.048 112.58 118.302 114.52C116.576 116.44 114.365 117.934 111.668 119.001C108.972 120.048 105.888 120.572 102.416 120.572Z" fill="white"/>
</g>
</g>
</g>
<defs>
<clipPath id="clip0">
<rect width="1280" height="720" fill="white"/>
</clipPath>
<clipPath id="clip1">
<rect x="706" y="-2" width="272" height="128" fill="white"/>
</clipPath>
</defs>
</svg>
