<svg width="490" height="442" viewBox="0 0 490 442" fill="none" xmlns="http://www.w3.org/2000/svg">
<path d="M451.42 88.4021C395.806 11.0774 278.324 -20.2889 162.784 13.4933C101.702 31.353 42.8071 67.1374 13.6203 136.428C-38.5543 260.291 70.9927 299.85 142.625 312.458C177.262 318.555 209.884 328.796 239.695 342.739C293.327 367.823 388.26 390.051 459.845 285.562C511.73 209.829 488.465 139.908 451.42 88.4021Z" fill="#F2F2F2"/>
<path d="M140.958 94.2032C140.807 93.0108 140.502 91.8431 140.051 90.7292C139.993 90.5186 139.892 90.3223 139.754 90.1528C139.617 89.9832 139.445 89.8442 139.251 89.7446C138.991 89.6771 138.719 89.674 138.458 89.7357L134.385 90.3589C134.044 90.3745 133.718 90.5013 133.456 90.72C132.926 91.2778 133.448 92.1761 133.432 92.9457C133.413 93.8111 132.644 94.5135 131.811 94.7459C130.96 94.9179 130.082 94.907 129.235 94.714L123.54 93.829C125.217 93.2936 126.71 92.2974 127.848 90.9541C128.598 90.0663 128.996 88.4089 127.913 87.9885C127.592 87.9002 127.256 87.8732 126.924 87.9091C124.344 87.9291 122.314 85.7749 119.898 84.8676C118.353 84.3245 116.674 84.284 115.104 84.7522C113.534 85.2203 112.152 86.1729 111.156 87.4739L114.189 87.6202C114.475 87.6044 114.758 87.6799 114.997 87.8357C115.662 88.3819 114.836 89.4311 114.929 90.2865C115.051 91.3977 116.526 91.635 117.639 91.7474C118.751 91.8597 120.162 92.7635 119.627 93.745C114.037 95.6706 108.348 89.9809 102.477 90.6813C100.991 90.8586 99.5876 91.4423 98.1368 91.8094C89.2745 94.0517 80.1124 88.069 71.059 89.336C69.0463 89.6791 67.0682 90.2008 65.1481 90.8949C63.916 91.2995 62.6307 91.7367 61.7354 92.675C60.8401 93.6133 60.4994 95.218 61.3475 96.1991C59.0098 96.3916 56.6565 96.1679 54.3969 95.5384C55.0079 95.878 55.5162 96.3759 55.8685 96.9798C56.2208 97.5836 56.404 98.2712 56.3989 98.9703C52.7488 99.5655 49.1954 100.649 45.8342 102.192C46.4615 103.235 47.1942 104.211 48.0208 105.104L43.3999 108.073C44.9611 108.466 45.7682 110.595 44.8604 111.925C46.4791 111.205 47.4823 109.342 49.2133 108.964C50.3473 108.717 51.5012 109.181 52.577 109.616C53.6528 110.052 54.8352 110.475 55.9489 110.148C57.0626 109.821 57.884 108.376 57.1764 107.456C61.9365 106.068 66.856 105.299 71.813 105.17C72.1954 105.122 72.5832 105.195 72.9215 105.38C73.5667 105.828 73.397 106.795 73.3622 107.579C73.3274 108.364 73.9389 109.395 74.6402 109.041C73.8152 109.757 74.5204 111.104 75.3119 111.856C76.1034 112.608 77.0574 113.646 76.5728 114.625C76.4464 114.88 76.2319 115.084 76.1102 115.342C75.751 116.103 76.3213 116.99 76.994 117.495C77.6666 118 78.4906 118.353 78.9579 119.053C79.4251 119.752 79.2129 120.977 78.3774 121.074L76.0024 118.059C75.191 118.9 74.6348 119.954 74.3981 121.099C76.9165 123.158 77.2954 127.348 75.187 129.825C74.1095 131.091 72.5773 131.86 71.24 132.848C69.9027 133.835 68.6653 135.241 68.6687 136.903C68.6745 139.775 68.4398 142.443 69.516 145.106C71.5004 150.015 73.7915 154.795 76.3757 159.417C77.0543 160.631 77.9313 161.961 79.3061 162.17C77.5687 157.94 76.0047 153.645 74.614 149.284C75.5198 149.287 76.5665 149.359 77.0974 150.093C77.5371 150.701 77.4427 151.527 77.5793 152.264C77.753 152.979 78.0428 153.66 78.437 154.281L86.7336 169.059C87.4214 170.285 88.2103 171.6 89.5248 172.096C90.3652 172.413 91.3375 172.353 92.111 172.81C92.7174 173.168 93.1257 173.803 93.7438 174.14C95.4916 175.094 97.9219 173.265 99.5552 174.404C100.022 174.729 100.319 175.246 100.75 175.619C102.258 176.925 104.733 176.051 106.474 177.026C107.596 177.654 108.178 178.91 108.777 180.048C110.276 182.899 112.702 185.693 115.916 185.92C116.925 185.991 117.956 185.8 118.943 186.024C119.93 186.249 120.901 187.11 120.743 188.109C120.471 189.823 121.318 191.699 121.09 193.419C120.676 196.552 116.232 197.928 115.851 201.065C115.767 201.752 115.898 202.461 115.734 203.133C115.534 203.957 114.915 204.628 114.695 205.447C114.279 206.999 115.391 208.544 116.612 209.588C117.834 210.632 119.291 211.533 119.959 212.994C120.664 214.539 120.318 216.341 120.547 218.024C121.048 221.698 124.222 224.422 127.488 226.178C128.483 226.713 129.551 227.231 130.195 228.159C131.036 229.371 130.952 230.968 131.233 232.416C131.92 235.961 134.905 238.882 134.99 242.493C135.05 245.059 133.624 247.387 132.771 249.809C131.973 252.129 131.683 254.593 131.924 257.035C132.164 259.477 132.929 261.838 134.165 263.958C134.802 265.034 135.564 266.049 136.015 267.216C136.82 269.298 136.559 271.665 137.301 273.771C138.282 276.554 140.977 278.854 140.719 281.794C141.943 284.335 144.645 285.583 147.362 286.34L152.232 287.695C153.164 287.955 154.139 288.216 155.088 288.028C156.038 287.841 156.944 287.052 156.919 286.085C154.531 285.546 152.067 284.973 150.098 283.518C148.129 282.063 146.781 279.472 147.528 277.14C147.874 276.059 148.611 274.811 147.911 273.918C147.509 273.406 146.776 273.273 146.324 272.806C145.618 272.078 145.86 270.856 146.368 269.978C146.875 269.1 147.608 268.316 147.813 267.323C147.916 266.768 147.847 266.194 147.615 265.679C147.383 265.164 146.999 264.732 146.514 264.441C147.417 264.1 148.239 263.574 148.925 262.895C149.559 262.171 149.851 261.055 149.353 260.232C150.834 260.42 152.582 260.512 153.554 259.379C154.33 258.475 154.277 257.122 153.97 255.971C153.663 254.819 153.145 253.7 153.129 252.508C156.544 252.67 159.968 252.554 163.365 252.161C162.873 250.507 161.757 249.109 160.253 248.264C161.791 248.003 163.193 246.162 163.679 244.679C164.165 243.196 164.041 241.581 163.74 240.05C163.625 239.656 163.609 239.239 163.694 238.837C163.868 238.285 164.41 237.948 164.912 237.66L172.548 233.274C173.004 233.046 173.417 232.741 173.769 232.373C174.569 231.433 174.451 230.014 174.041 228.85C173.632 227.686 172.975 226.591 172.818 225.367C172.346 221.706 176.264 219.079 177.587 215.633C178.106 214.281 178.212 212.811 178.312 211.366C178.42 209.814 178.428 208.011 177.236 207.011C176.094 206.052 174.309 206.266 173.114 205.374C172.018 204.556 171.64 202.968 170.443 202.308C169.355 201.708 167.992 202.09 166.783 201.808C164.654 201.311 163.314 198.857 161.139 198.63C159.912 198.502 158.524 199.101 157.518 198.387C156.632 197.757 156.597 196.492 156.428 195.418C156.132 193.749 155.333 192.211 154.136 191.011C152.94 189.81 151.404 189.006 149.736 188.705C148.471 188.502 147.094 188.579 146.018 187.884C144.928 187.18 144.429 185.862 143.573 184.887C142.193 183.316 140.021 182.758 137.985 182.279L129.706 180.333C128.237 179.988 126.342 179.804 125.554 181.092C125.32 181.582 125.155 182.102 125.062 182.637C124.767 183.604 124.172 184.454 123.364 185.062C122.555 185.671 121.575 186.007 120.563 186.023C119.869 184.84 118.745 183.97 117.425 183.595C116.586 183.362 115.687 183.336 114.887 182.991C114.451 182.778 114.063 182.479 113.746 182.111C113.43 181.743 113.192 181.314 113.047 180.851C112.903 180.388 112.854 179.9 112.904 179.418C112.954 178.935 113.102 178.468 113.339 178.044C113.817 177.195 114.001 176.211 113.864 175.246C113.727 174.281 113.276 173.388 112.581 172.705C111.173 171.441 109.136 171.136 107.249 171.262C106.754 170.183 107.581 168.966 108.472 168.182C109.363 167.398 110.444 166.627 110.638 165.456C110.943 163.615 108.594 162.216 106.809 162.765C105.025 163.314 103.887 165.047 103.134 166.756C102.702 167.736 102.335 168.768 101.653 169.594C100.972 170.421 99.8751 171.012 98.8374 170.747C97.3683 170.372 96.8009 168.626 96.4757 167.145C96.0395 165.158 95.6007 163.143 95.6921 161.111C95.7835 159.079 96.4687 156.992 97.9673 155.616C100.409 153.374 104.156 153.594 107.452 153.951C106.673 153.074 106.865 151.596 107.699 150.77C108.138 150.379 108.667 150.101 109.238 149.961C109.81 149.821 110.406 149.822 110.977 149.964C111.97 150.171 112.865 150.706 113.517 151.483C114.454 152.625 114.72 154.167 115.428 155.463C116.136 156.759 117.728 157.864 119.031 157.169C120.156 156.568 120.335 155.008 120.055 153.763C119.775 152.519 119.18 151.309 119.281 150.037C119.475 147.611 121.99 146.15 124.209 145.151C126.429 144.152 128.97 142.808 129.322 140.4C129.334 139.928 129.423 139.462 129.585 139.019C129.831 138.628 130.173 138.306 130.579 138.084C137.057 133.803 143.642 129.47 151.045 127.131C151.43 127.01 151.476 127.145 151.868 127.05C152.418 126.732 152.054 125.854 151.527 125.5C151 125.146 150.296 124.875 150.162 124.254C150.064 123.798 150.333 123.351 150.403 122.889C150.574 121.756 149.218 120.71 148.166 121.163C147.571 120.375 148.748 119.46 149.699 119.198C152.556 118.412 155.489 117.933 158.448 117.769C158.79 117.715 159.14 117.774 159.444 117.938C159.941 118.282 159.877 119.072 159.525 119.563C159.173 120.055 158.625 120.363 158.186 120.779C157.707 121.246 157.365 121.836 157.197 122.484C157.03 123.133 157.044 123.814 157.238 124.455C158.783 125.241 160.462 126.05 162.173 125.773C163.884 125.496 165.402 123.574 164.598 122.039C163.849 120.609 161.6 120.287 161.213 118.72C160.76 116.885 163.357 115.254 162.772 113.457C162.516 112.67 161.732 112.207 161.13 111.638C160.419 110.942 159.935 110.046 159.743 109.07C159.55 108.093 159.657 107.082 160.05 106.167C159.07 106.34 158.062 106.274 157.112 105.977C156.162 105.68 155.297 105.159 154.59 104.459C153.284 103.141 152.243 101.062 150.388 101.121C148.687 101.175 147.221 103.16 145.63 102.554C145.238 102.405 144.825 102.102 144.446 102.28C144.322 102.361 144.218 102.468 144.141 102.595C144.065 102.722 144.018 102.865 144.005 103.013C143.6 104.946 144.296 107.149 143.242 108.819C142.096 110.637 139.444 110.889 138.054 112.528C137.299 113.418 137.007 114.617 136.313 115.555C135.62 116.494 134.148 117.09 133.315 116.273C133.724 115.432 133.836 114.477 133.632 113.564C133.428 112.651 132.921 111.835 132.193 111.248C131.42 110.744 130.587 110.339 129.713 110.042C128.737 109.629 127.808 109.111 126.943 108.498C126.51 108.237 126.158 107.86 125.926 107.41C125.743 106.847 125.768 106.236 125.996 105.69C126.418 104.48 127.163 103.408 128.149 102.59C129.136 101.772 130.327 101.239 131.595 101.049C132.703 100.898 133.993 100.952 134.726 100.107C135.114 99.6603 135.318 98.9849 135.881 98.8034C136.241 98.731 136.615 98.7771 136.947 98.9347L141.084 100.391C141.545 100.599 142.053 100.683 142.557 100.634C142.807 100.601 143.035 100.474 143.195 100.279C143.356 100.084 143.436 99.8362 143.421 99.5845C143.289 98.8975 142.232 98.5679 142.328 97.8751C142.382 97.6505 142.503 97.4476 142.674 97.2931C144.167 95.7043 145.993 94.4651 148.02 93.6644C150.048 92.8636 152.228 92.5211 154.403 92.6613C154.926 93.5188 154.1 94.5342 153.413 95.2662C152.726 95.9982 152.174 97.306 153.005 97.8695C153.345 98.0433 153.724 98.1286 154.106 98.1175C155.124 98.2554 156.114 98.5556 157.037 99.0067C158.467 99.6287 159.869 100.309 161.243 101.048C161.122 100.142 161.006 99.1875 161.349 98.3401C161.693 97.4927 162.669 96.828 163.522 97.158C164.344 97.4761 164.765 98.5642 165.641 98.6639C166.809 98.7969 167.269 97.0715 166.782 96.002C166.294 94.9326 165.328 94.0371 165.247 92.8644C165.193 92.0732 165.494 91.092 164.862 90.6129C164.637 90.4691 164.382 90.3796 164.116 90.3515L148.337 87.4477C147.4 87.2753 146.046 87.4075 146.004 88.3593C145.981 88.8906 146.456 89.4163 146.246 89.9048C146.021 90.4262 145.284 90.3785 144.747 90.5629C143.914 90.849 143.496 91.8381 143.576 92.7151C143.723 93.5867 144.06 94.4149 144.565 95.1406C143.538 94.7114 141.984 94.6325 140.958 94.2032Z" fill="#3F3D56"/>
<path d="M128.367 80.8082C127.372 80.4789 126.3 80.4636 125.296 80.7643C124.292 81.065 123.404 81.6672 122.754 82.4892C122.494 82.8313 122.276 83.3029 122.494 83.6733C122.806 84.2044 123.6 83.9946 124.186 83.8047C125.047 83.497 125.984 83.4747 126.859 83.7409C127.409 83.9298 127.901 84.2636 128.454 84.4453C128.723 84.5578 129.017 84.595 129.306 84.5528C129.594 84.5106 129.866 84.3908 130.091 84.206C130.47 83.8193 130.494 83.2181 130.495 82.6765C130.521 82.4952 130.507 82.3104 130.452 82.1355C130.398 81.9606 130.306 81.8 130.181 81.6654C129.96 81.5373 129.712 81.4638 129.456 81.451C128.885 81.3452 128.368 81.0432 127.995 80.5972" fill="#3F3D56"/>
<path d="M134.057 79.2241C133.835 79.212 133.613 79.2573 133.413 79.3558C133.212 79.4543 133.041 79.6026 132.915 79.7865C132.789 79.9704 132.712 80.1836 132.692 80.4058C132.672 80.6279 132.71 80.8514 132.801 81.0548C133.485 81.2413 134.199 81.2879 134.902 81.1918C135.252 81.1374 135.578 80.9805 135.84 80.741C136.101 80.5014 136.285 80.1899 136.37 79.8456C135.543 79.9961 134.69 79.8331 133.977 79.3885" fill="#3F3D56"/>
<path d="M153.147 76.5783C151.286 76.9741 149.478 77.5883 147.76 78.4082C148.57 78.7194 149.258 79.2824 149.724 80.0142C150.189 80.7461 150.407 81.6081 150.345 82.4732C150.273 82.8053 150.281 83.1501 150.37 83.4783C150.568 83.9579 151.141 84.1378 151.645 84.2609C152.551 84.5365 153.496 84.6572 154.442 84.6179C154.915 84.5931 155.374 84.4508 155.778 84.2038C156.183 83.9568 156.519 83.6129 156.757 83.2033C156.894 82.8145 157.054 82.4344 157.238 82.0653C158.446 80.2254 162.035 82.4501 163.332 80.6719C163.789 80.0455 163.747 79.1025 164.343 78.6062C164.651 78.3899 165.008 78.2536 165.382 78.2096C167.99 77.6914 170.625 77.3162 173.274 77.0856C174.53 76.9763 176.166 76.5256 176.176 75.2656C171.448 74.337 166.545 74.9965 162.231 77.1417C160.676 77.9203 158.62 79.5582 157.123 78.5259C156.562 78.1394 156.59 77.0986 155.818 76.664C155.029 76.2197 153.985 76.4004 153.147 76.5783Z" fill="#3F3D56"/>
<path d="M168.61 79.4699L170.83 79.8964C170.421 79.8783 170.013 79.9476 169.634 80.0995C169.254 80.2515 168.911 80.4826 168.628 80.7776C168.345 81.0726 168.127 81.4246 167.991 81.8101C167.855 82.1956 167.802 82.6058 167.837 83.0133C169.915 83.7077 172.181 83.032 174.37 83.1243C176.56 83.2166 179.107 84.7805 178.734 86.9398C178.621 87.5927 178.243 88.2452 178.44 88.8781C178.577 89.3217 178.968 89.6365 179.189 90.045C179.649 90.8964 179.281 91.9732 178.7 92.7471C178.119 93.521 177.338 94.1385 176.828 94.961C175.56 97.0066 176.281 99.6511 177.036 101.936C177.255 102.8 177.658 103.606 178.219 104.298C179.338 105.488 181.163 105.592 182.796 105.615C183.986 105.633 185.348 105.574 186.1 104.653C187.082 103.45 186.395 101.573 187.042 100.161C187.629 98.879 189.124 98.329 190.48 97.9388C192.962 97.2241 195.492 96.6165 197.839 95.5369C200.754 94.1964 203.477 92.1073 206.681 91.9348C207.579 91.8863 208.5 91.9924 209.366 91.7462C210.232 91.4999 211.054 90.7515 210.989 89.8539C210.933 89.087 210.284 88.5238 209.777 87.9457C209.27 87.3675 208.871 86.4785 209.337 85.8668L217.734 84.2985C217.139 82.6765 216.675 80.5403 218.043 79.4845C218.536 79.1036 219.197 78.9513 219.617 78.4908C220.333 77.7059 219.973 76.3538 219.146 75.6863C218.32 75.0188 217.202 74.8638 216.143 74.7759C212.462 74.4701 208.759 74.6722 205.07 74.8744C197.859 75.2696 190.649 75.6649 183.438 76.0601C181.986 76.1397 180.31 76.0181 178.979 76.5133C177.852 76.9326 177.051 77.7022 175.762 77.9726C173.382 78.4717 170.763 78.1339 168.61 79.4699Z" fill="#3F3D56"/>
<path d="M208.372 97.0137C208.146 96.9779 207.914 97.0303 207.726 97.1602C207.601 97.2975 207.527 97.4732 207.516 97.6584C207.372 98.4754 207.543 99.3165 207.993 100.013C208.223 100.355 208.54 100.629 208.911 100.807C209.282 100.985 209.694 101.06 210.104 101.025C211.104 100.898 211.84 100.045 212.759 99.6289C214.175 98.9883 220.189 97.9896 216.029 95.7421C214.595 94.9675 213.669 95.6512 212.539 96.1613C211.253 96.819 209.812 97.1137 208.372 97.0137Z" fill="#3F3D56"/>
<path d="M244.809 78.2012C244.323 78.3996 243.917 78.7534 243.653 79.2071C243.532 79.4375 243.504 79.7058 243.575 79.9564C243.646 80.2071 243.81 80.4209 244.034 80.5536C244.216 80.6194 244.408 80.6499 244.601 80.6435L246.576 80.7025C247.415 80.7276 248.463 80.9063 248.689 81.7149C248.856 82.3153 248.481 83.0868 248.933 83.5159C249.127 83.6662 249.361 83.7572 249.605 83.778C250.256 83.9451 250.935 83.967 251.595 83.8422C253.033 83.4567 252.277 82.5796 252.73 81.7986C253.423 80.6036 253.303 81.327 254.523 80.6421C255.424 80.1363 256.589 79.2188 255.837 77.9297C254.528 75.6879 246.739 77.2381 244.809 78.2012Z" fill="#3F3D56"/>
<path d="M283.794 77.0741L282.647 77.2271C280.06 77.5723 277.459 77.9206 274.969 78.6972C276.047 79.1236 277.178 79.4012 278.331 79.5224C278.966 79.5535 279.596 79.6431 280.215 79.7901C281.315 80.1177 282.424 80.9634 283.487 80.5302C284.146 80.2616 284.361 79.5753 284.907 79.2116C285.284 78.9605 286.713 78.5541 286.873 78.3006C288.165 76.2515 284.787 76.9415 283.794 77.0741Z" fill="#3F3D56"/>
<path d="M288.83 82.2868C287.298 83.1434 285.876 84.1843 284.597 85.3863C284.059 85.8929 283.508 86.5229 283.557 87.2609C283.622 88.2417 284.667 88.8107 285.572 89.1939L289.238 90.7462C289.683 90.1193 289.276 89.2539 288.816 88.6378C288.357 88.0218 287.81 87.309 288.014 86.5677C288.245 85.7216 289.277 85.4334 290.142 85.2876C291.551 85.0501 295.353 85.0692 294.896 82.7979C294.358 80.1216 290.245 81.496 288.83 82.2868Z" fill="#3F3D56"/>
<path d="M288.093 233.74C287.744 234.75 287.71 235.941 288.314 236.823C288.992 237.813 290.348 238.182 291.521 237.931C292.689 237.62 293.73 236.951 294.498 236.017C295.2 235.235 295.777 234.349 296.21 233.391C296.814 231.898 297.24 230.34 297.479 228.747L298.617 222.77C298.872 221.434 298.862 217.339 296.407 218.673C295.736 219.038 294.183 221.916 293.48 222.732C292.213 224.203 292.046 225.63 291.379 227.412C290.544 229.644 288.865 231.504 288.093 233.74Z" fill="#3F3D56"/>
<path d="M417.766 264.326C416.962 264.012 416.183 263.641 415.433 263.215C414.681 265.282 414.281 267.461 414.25 269.661L419.747 266.55C420.574 266.082 421.512 265.432 421.494 264.482C421.501 264.365 421.477 264.247 421.424 264.143C421.37 264.038 421.289 263.95 421.19 263.887C421.068 263.838 420.935 263.822 420.805 263.842C419.99 263.91 419.246 264.311 418.477 264.59C417.708 264.869 416.809 265.016 416.104 264.602" fill="#3F3D56"/>
<path d="M446.765 266.173C446.162 266.337 445.572 266.548 445.002 266.805C443.741 267.447 442.882 268.666 441.747 269.512C440.661 270.321 439.353 270.765 438.069 271.197C437.692 271.531 437.865 272.203 438.275 272.496C438.716 272.747 439.221 272.86 439.727 272.822C441.061 272.852 442.466 272.865 443.634 272.221C444.292 271.794 444.908 271.305 445.474 270.761C446.839 269.621 448.48 268.869 450.103 268.142C450.694 267.919 451.241 267.593 451.717 267.178C452.737 266.172 452.809 264.622 451.338 264.279C450.149 264.003 447.897 265.806 446.765 266.173Z" fill="#3F3D56"/>
<path d="M459.578 257.803C459.644 257.111 459.552 256.414 459.309 255.763C459.066 255.112 458.678 254.525 458.175 254.046C458.16 255.429 458.118 256.904 457.34 258.048C456.785 258.863 455.916 259.414 455.308 260.191C454.7 260.968 454.431 262.199 455.143 262.88C455.599 263.227 456.154 263.418 456.726 263.425C458.145 263.592 459.787 263.685 460.782 262.66C461.325 262.101 461.589 261.273 462.251 260.861C462.498 260.758 462.718 260.6 462.896 260.4C463.17 259.965 462.735 259.392 462.246 259.235C461.757 259.079 461.218 259.152 460.726 259.004C460.235 258.855 459.784 258.302 460.036 257.855" fill="#3F3D56"/>
<path d="M436.805 207.065C436.061 207.246 435.29 207.291 434.53 207.199C433.267 206.967 432.284 206.015 431.264 205.234C428.84 203.389 425.894 202.359 422.848 202.294C420.077 202.242 417.281 202.992 414.56 202.468C414.737 203.457 415.584 204.199 416.486 204.64C417.389 205.081 418.386 205.303 419.293 205.734C420.746 206.433 421.898 207.632 422.539 209.111C422.831 209.793 423.015 210.535 423.457 211.131C424.362 212.348 426.076 212.615 427.59 212.516C429.563 212.386 431.623 211.818 433.459 212.554C434.863 213.116 435.868 214.345 437.04 215.3C438.213 216.256 439.864 216.965 441.21 216.276C439.812 215.823 438.595 214.935 437.737 213.742C436.879 212.549 436.425 211.112 436.441 209.642C437.761 209.764 441.564 209.717 441.359 207.473C441.186 205.572 437.939 206.86 436.805 207.065Z" fill="#3F3D56"/>
<path d="M419.532 222.535C419.766 221.249 421.049 220.114 420.649 218.869C420.373 218.008 419.375 217.583 418.471 217.562C417.568 217.541 416.68 217.81 415.777 217.836C415.188 217.804 414.599 217.813 414.012 217.861C412.218 218.155 411.113 220.035 409.423 220.704C408.395 221.11 407.24 221.033 406.171 221.314C403.745 221.951 402.209 224.244 400.513 226.093C397.773 229.066 394.202 231.149 390.265 232.07C388.885 232.389 387.402 232.593 386.306 233.489C384.853 234.676 384.496 236.71 384.173 238.557C383.28 243.659 381.916 248.667 380.098 253.516L385.859 254.252C386.955 254.392 388.09 254.529 389.145 254.204C389.912 253.915 390.639 253.528 391.307 253.053C393.873 251.46 396.745 250.423 399.737 250.01C401.245 249.803 402.827 249.765 404.243 250.326C405.659 250.886 406.874 252.158 406.992 253.677C407.605 253.486 408.257 253.465 408.88 253.617C409.503 253.769 410.073 254.086 410.53 254.537C411.432 255.456 412.023 256.635 412.219 257.909C412.371 258.697 412.522 259.641 413.254 259.972C413.851 260.242 414.535 259.951 415.188 259.899C417.403 259.722 419.241 262.304 421.418 261.86C423.753 261.383 424.327 257.886 426.605 257.185C427.913 256.783 429.748 257.272 430.375 256.055C430.927 254.982 429.825 253.745 429.939 252.543C430.079 251.065 431.823 250.437 433.168 249.806C437.805 247.63 440.005 241.39 437.758 236.787C436.427 234.06 433.807 231.914 433.324 228.918C432.952 226.613 433.86 223.926 432.391 222.111C431.643 221.189 430.377 220.679 429.933 219.578C429.653 218.885 429.765 218.098 429.614 217.366C429.464 216.634 428.825 215.868 428.102 216.058C426.003 216.609 425.333 223.093 424.209 224.668C422.501 227.063 418.994 225.485 419.532 222.535Z" fill="#3F3D56"/>
<path d="M380.735 209.515C380.018 209.314 379.235 209.115 378.547 209.403C377.86 209.69 377.459 210.699 378.01 211.2C382.326 211.032 386.667 210.865 390.946 211.451C395.876 212.126 400.754 213.799 405.706 213.307C402.877 212.472 400.002 211.805 397.096 211.309L392.248 210.383C390.948 210.11 389.634 209.907 388.312 209.775C385.547 209.546 383.454 210.277 380.735 209.515Z" fill="#3F3D56"/>
<path d="M385.055 194.485C384.697 194.455 384.253 194.43 384.068 194.738C383.891 195.032 384.094 195.421 383.998 195.751C383.868 196.202 383.278 196.317 382.813 196.255C382.347 196.194 381.844 196.047 381.432 196.271C381.223 196.414 381.066 196.621 380.985 196.86C380.903 197.1 380.901 197.36 380.98 197.6C381.148 198.078 381.421 198.513 381.778 198.872C382.387 199.64 383.082 200.337 383.848 200.949C385.331 202.044 387.34 202.571 388.275 204.16C388.406 204.468 388.609 204.741 388.866 204.956C389.314 205.24 389.899 205.024 390.382 204.803L392.074 204.03C392.379 203.92 392.651 203.735 392.866 203.492C393.252 202.967 393.015 202.221 392.69 201.656C392.366 201.091 391.95 200.506 392.02 199.858C392.144 198.703 393.63 198.261 394.24 197.272C394.856 196.276 394.455 194.992 394.526 193.823C394.609 192.455 395.469 190.677 394.086 189.655C392.911 188.787 391.788 189.589 390.945 190.548C389.166 192.569 388.325 194.758 385.055 194.485Z" fill="#3F3D56"/>
<path d="M395.328 174.055C395.906 175.161 397.111 175.821 397.741 176.899C398.424 178.067 398.346 179.576 399.087 180.708C399.847 181.869 401.377 182.486 401.803 183.806C402.268 185.249 401.212 187.001 402.054 188.261C402.211 188.467 402.409 188.639 402.636 188.764C402.862 188.889 403.113 188.966 403.37 188.99C403.628 189.014 403.888 188.984 404.134 188.902C404.38 188.82 404.606 188.687 404.797 188.513C405.152 188.127 405.342 187.617 405.327 187.093C405.311 186.568 405.091 186.071 404.714 185.706C404.216 185.252 403.5 185.055 403.084 184.524C402.868 184.218 402.723 183.867 402.662 183.496C402.435 182.429 402.471 181.322 402.768 180.271C402.879 180.004 402.907 179.71 402.849 179.427C402.662 178.883 401.924 178.844 401.407 178.591C400.231 178.018 400.26 176.359 400.465 175.067C400.329 175.927 397.265 174.465 396.945 173.977C396.307 173.01 396.654 171.143 396.528 170.074C395.152 170.737 394.622 172.702 395.328 174.055Z" fill="#3F3D56"/>
<path d="M364.468 191.077C363.903 190.444 363.051 189.782 362.293 190.164C361.715 190.455 361.556 191.255 361.782 191.862C362.059 192.451 362.484 192.958 363.016 193.332C364.595 194.635 366.296 195.811 367.675 197.325C370.141 200.035 371.447 203.692 374.129 206.189C374.668 206.768 375.382 207.154 376.162 207.289C376.943 207.362 377.82 206.861 377.91 206.082C377.984 205.44 377.537 204.865 377.099 204.389C376.057 203.256 374.917 202.213 373.933 201.028C373.479 200.574 373.193 199.977 373.124 199.338C373.119 198.701 373.7 198.033 374.318 198.191C373.567 197.999 373.009 196.748 371.907 196.512C370.985 196.316 370.762 196.886 369.666 196.416C367.574 195.519 365.933 192.717 364.468 191.077Z" fill="#3F3D56"/>
<path d="M413.616 129.448C413.016 129.27 412.426 129.059 411.849 128.817C410.296 128.351 408.241 129.492 408.448 131.1C408.586 132.169 409.58 132.889 410.129 133.816C410.944 135.191 410.726 136.934 410.298 138.473C410.193 138.95 409.994 139.4 409.711 139.798C409.316 140.218 408.843 140.558 408.319 140.799C406.222 141.975 404.372 143.547 402.873 145.426C402.71 145.6 402.596 145.814 402.544 146.046C402.47 146.589 403.016 146.985 403.324 147.438C404.01 148.444 403.514 149.797 403.582 151.013C403.572 151.185 403.605 151.356 403.68 151.512C403.754 151.667 403.867 151.8 404.008 151.9C404.421 152.11 404.911 151.753 405.135 151.347C405.878 150.001 405.318 147.84 406.712 147.191C406.976 147.068 407.295 147.016 407.471 146.785C407.75 146.417 407.481 145.873 407.623 145.434C407.835 144.774 408.737 144.745 409.429 144.774C410.622 144.824 411.814 144.665 412.951 144.305C413.398 144.199 413.803 143.964 414.117 143.63C414.534 143.11 414.497 142.37 414.414 141.709C413.997 138.412 412.953 135.226 411.338 132.322C412.562 132.479 413.895 132.614 414.951 131.976C415.543 131.619 416.253 130.55 415.959 129.822C415.495 128.672 414.657 129.64 413.616 129.448Z" fill="#3F3D56"/>
<path d="M256.623 147.579C256.769 148.365 256.914 149.192 256.656 149.949C256.398 150.706 255.588 151.338 254.823 151.107C254.229 150.927 253.886 150.329 253.464 149.874C251.119 147.343 245.829 148.808 244.38 145.676C243.789 144.398 244.191 142.867 243.787 141.517C243.533 140.738 243.027 140.064 242.348 139.603C241.67 139.142 240.857 138.92 240.039 138.971C239.292 139.079 238.565 139.296 237.881 139.615C233.301 141.449 228.493 142.652 223.589 143.19C222.657 143.246 221.735 143.414 220.842 143.689C218.829 144.419 217.453 146.286 216.473 148.191C215.494 150.096 214.771 152.159 213.458 153.851C212.079 155.63 210.145 156.876 208.342 158.223C207.647 158.671 207.069 159.277 206.654 159.992C206.263 160.795 206.285 161.729 206.315 162.621L206.684 173.459C206.731 174.853 206.791 176.297 207.415 177.544C208.194 179.102 209.733 180.122 210.801 181.498C211.89 182.913 212.458 184.66 212.408 186.444C212.385 187.162 212.314 188.01 212.872 188.461C213.212 188.681 213.61 188.796 214.015 188.79L228.675 189.99C231.254 190.201 234.112 190.548 235.796 192.512C236.591 193.44 237.229 194.773 238.446 194.873C238.968 194.915 239.476 194.701 239.998 194.66C241.316 194.555 242.473 195.555 243.203 196.657C244.309 198.335 244.811 200.34 244.626 202.341C244.507 203.598 244.117 204.819 244.033 206.078C243.714 210.87 247.775 215.033 247.854 219.834C247.9 222.658 246.56 225.297 245.253 227.801C247.362 230.997 245.635 235.253 246.475 238.989C247.271 242.534 250.227 245.309 250.963 248.867C251.301 250.495 251.32 252.5 252.756 253.338C253.386 253.646 254.085 253.785 254.785 253.745C259.007 253.795 263.18 252.845 266.964 250.972C268.74 250.091 270.58 248.775 270.89 246.817C271.14 245.238 270.34 243.472 271.155 242.096C272.115 240.475 274.576 240.604 275.989 239.357C278.282 237.335 276.494 233.479 277.423 230.566C278.258 227.949 281.132 226.558 282.557 224.208C283.117 223.198 283.52 222.107 283.75 220.975C284.402 218.268 284.809 215.508 284.964 212.728C285.002 211.039 285.126 209.353 285.337 207.677C286.873 198.133 296.308 191.743 299.371 182.575C299.663 181.699 299.801 180.533 299.022 180.037C298.56 179.817 298.036 179.762 297.538 179.882L290.78 180.734C289.941 180.84 289.051 180.939 288.28 180.59C287.509 180.242 286.957 179.266 287.366 178.526C288.514 176.447 286.152 173.819 285.103 171.688C282.278 165.951 278.914 160.495 275.057 155.395C274.81 155.133 274.655 154.797 274.616 154.439L276.534 154.502C275.887 152.179 274.818 149.637 272.561 148.787C271.289 148.308 269.881 148.474 268.524 148.548C264.637 148.76 260.47 148.173 256.623 147.579Z" fill="#3F3D56"/>
<path d="M268.527 95.2236C269.544 96.3037 270.684 97.4489 272.155 97.6371C274.755 97.9697 276.623 95.2818 277.813 92.9471C277.857 93.5423 278.132 94.0968 278.578 94.4928C279.025 94.8887 279.608 95.0948 280.205 95.0672C280.846 94.9592 281.459 94.7198 282.003 94.364C287.153 91.5496 292.922 90.0584 298.79 90.0244C298.734 89.5798 298.844 89.1302 299.1 88.7621C299.356 88.3941 299.738 88.1338 300.175 88.0314C301.368 87.7949 302.443 88.8265 303.018 89.8981C303.594 90.9697 303.953 92.2118 304.867 93.014C305.782 93.8161 307.552 93.7812 307.914 92.6196C308.26 91.5044 307.099 90.5534 306.134 89.896C305.168 89.2385 304.151 88.0217 304.801 87.0514C309.732 85.9599 314.693 84.8643 319.739 84.6473C320.598 84.6772 321.454 84.5298 322.254 84.2141C323.023 83.8365 323.635 82.9794 323.428 82.1476C322.327 82.4064 321.174 82.3315 320.115 81.9323C319.057 81.5331 318.141 80.8278 317.486 79.9062C324.487 79.3285 331.933 78.836 338.138 82.1304C338.883 83.7288 335.088 85.0587 336.103 86.5003C336.427 86.9601 337.076 87.014 337.638 87.0245C341.95 87.1045 346.286 87.183 350.549 86.5321C352.107 86.2942 353.681 85.9584 355.245 86.1513C357.85 86.4726 360.078 88.2108 362.641 88.7776C363.685 89.0083 364.854 89.0161 365.734 88.4093C366.613 87.8026 366.991 86.421 366.27 85.6322C368.684 83.2671 372.689 83.8533 375.872 84.9856C379.056 86.1179 382.072 87.944 385.442 88.1964C387.858 88.3773 390.308 87.7274 392.695 88.1405C394.195 88.4001 395.592 89.0676 397.058 89.4777C399.832 90.2532 402.765 90.0895 405.645 90.1268C412.992 90.2258 420.259 91.6698 427.086 94.3873C427.974 94.6764 428.788 95.1572 429.469 95.7955C430.105 96.4758 430.429 97.5328 430.002 98.3598L422.947 97.3291C423.612 98.6375 425.331 98.8605 426.728 99.3119C428.124 99.7633 429.572 101.305 428.733 102.509C427.22 102.028 425.849 103.54 425.085 104.932C424.32 106.324 423.389 107.991 421.803 108.076C420.383 108.152 418.666 106.943 417.741 108.022C419.019 109.635 420.114 111.385 421.005 113.241C421.919 115.146 422.571 117.546 421.335 119.26C421.14 119.566 420.845 119.795 420.501 119.907C419.491 120.162 418.836 118.928 418.112 118.179C417.2 117.236 415.82 116.969 414.585 116.527C413.35 116.084 412.049 115.214 411.952 113.906C411.892 113.092 412.322 112.335 412.638 111.583C413.171 110.315 413.403 108.941 413.319 107.568C413.249 106.464 412.94 105.315 412.147 104.544C411.353 103.772 409.984 103.527 409.133 104.234C408.735 104.564 408.417 105.091 407.901 105.111C406.99 105.146 406.29 103.556 405.556 104.099C405.642 104.677 405.523 105.267 405.218 105.765C403.029 107.669 399.667 106.864 396.846 107.536C395.504 107.92 394.22 108.481 393.026 109.204C392.58 109.395 392.2 109.714 391.934 110.12C391.582 110.805 391.97 111.681 392.591 112.136C393.249 112.54 393.989 112.793 394.757 112.876C398.197 113.527 401.687 114.536 404.402 116.745C407.118 118.954 408.899 122.606 408.039 126L401.256 119.519C401.514 122.24 401.66 124.969 401.695 127.705C401.739 128.24 401.665 128.777 401.48 129.28C400.996 130.348 399.685 130.708 398.537 130.943C398.218 131.004 397.915 131.132 397.648 131.318C397.381 131.504 397.157 131.744 396.99 132.023C396.823 132.302 396.717 132.613 396.678 132.936C396.64 133.259 396.67 133.586 396.768 133.897C397.176 135.227 398.193 136.264 399.125 137.297C400.056 138.33 400.973 139.504 401.095 140.89C401.217 142.276 400.171 143.838 398.783 143.742C397.731 143.669 396.951 142.727 396.502 141.773C396.053 140.818 395.786 139.755 395.112 138.944C393.071 136.489 388.487 137.541 386.659 134.924C386.193 135.453 385.869 136.092 385.72 136.781C385.57 137.469 385.599 138.185 385.804 138.859C386.654 138.327 387.819 138.821 388.458 139.595C389.097 140.369 389.398 141.361 389.9 142.23C390.577 143.402 391.655 144.442 391.75 145.793C391.724 146.303 391.733 146.815 391.775 147.325C391.943 148.143 392.635 148.731 393.115 149.415C394.231 151.007 394.176 153.194 393.456 155C392.737 156.806 391.444 158.315 390.164 159.778C387.929 162.334 385.647 164.875 382.997 166.997C382.24 167.603 381.433 168.198 380.962 169.045C380.491 169.891 380.467 171.08 381.191 171.724C380.673 171.75 379.744 172.005 379.226 172.031C379.044 169.953 379.004 167.865 379.107 165.782C377.063 164.8 374.863 167.429 375.126 169.681C375.39 171.933 377.019 173.74 378.179 175.688C379.027 177.113 379.657 178.774 379.374 180.408C379.091 182.042 377.632 183.549 375.981 183.405C373.353 183.176 372.254 179.404 369.652 178.972C369.423 178.918 369.182 178.942 368.968 179.04C368.581 179.252 368.514 179.769 368.493 180.209C368.386 182.369 368.294 184.614 369.137 186.605C370.37 189.518 373.557 191.965 372.888 195.057C369.288 193.383 367.416 189.345 366.566 185.467C365.716 181.588 365.574 177.517 364.051 173.85C362.894 175.333 360.462 174.107 359.405 172.552C358.403 171.077 357.786 169.371 356.814 167.876C355.841 166.382 354.352 165.043 352.571 164.961C350.703 164.875 349.084 166.156 347.659 167.367C346.488 168.363 345.286 169.398 344.601 170.774C343.605 172.777 343.865 175.138 343.817 177.375C343.765 179.793 343.253 182.344 341.605 184.114C339.957 185.884 336.916 186.5 335.098 184.905C334.149 184.072 333.69 182.828 333.28 181.633C331.308 175.876 329.665 170.011 328.36 164.066C328.054 165.423 326.863 167.172 325.725 166.373C325.469 166.158 325.262 165.891 325.118 165.591C322.995 161.992 319.063 159.834 315.091 158.54C311.118 157.246 306.939 156.642 303.011 155.22C300.809 154.423 298.707 153.376 296.744 152.099C296.244 152.834 295.952 153.69 295.899 154.578C295.846 155.465 296.034 156.351 296.443 157.14C297.315 158.683 299.286 159.576 300.974 159.036C301.847 158.758 302.583 158.152 303.449 157.853C304.314 157.554 305.476 157.701 305.854 158.535C306.217 159.333 305.669 160.298 305.941 161.132C306.354 162.401 308.269 162.499 308.938 163.654C309.436 164.513 309.026 165.654 308.315 166.348C307.604 167.041 306.655 167.421 305.787 167.904C302.971 169.47 300.968 172.144 298.506 174.224C296.045 176.304 292.572 177.823 289.638 176.489C290.337 172.948 286.12 170.348 285.344 166.823C285.088 165.663 285.221 164.431 284.856 163.3C284.328 161.663 282.876 160.538 281.684 159.297C280.239 157.776 279.114 155.981 278.374 154.018C277.633 152.055 277.294 149.964 277.375 147.867C277.44 146.411 277.707 144.93 277.376 143.51C277.044 142.09 275.868 140.716 274.411 140.78C271.084 140.927 266.892 141.175 265.147 138.338C264.524 137.326 264.253 135.844 265.153 135.068C265.789 134.521 266.727 134.572 267.561 134.655L275.058 135.392C276.811 135.564 278.707 135.707 280.211 134.79C281.716 133.874 282.368 131.44 280.975 130.362C279.957 129.574 278.133 129.617 277.837 128.364C277.591 127.32 278.746 126.137 278.122 125.265C277.675 124.639 276.669 124.813 276.06 125.281C275.45 125.75 275.008 126.436 274.326 126.791C273.13 127.413 271.701 126.821 270.414 126.418C269.127 126.015 267.401 125.981 266.777 127.176C266.079 128.513 267.396 130.265 266.704 131.605C265.788 133.376 262.685 132.367 261.399 133.891C259.923 135.639 262.403 138.246 261.906 140.479C261.27 140.794 260.564 140.938 259.855 140.898C259.147 140.859 258.461 140.636 257.865 140.252C257.279 139.853 256.811 139.302 256.513 138.659C256.214 138.016 256.095 137.303 256.169 136.598C256.292 135.593 256.816 134.568 256.465 133.618C256.182 132.851 255.411 132.394 254.695 131.998L247.409 127.972C246.733 129.227 247.588 130.782 248.658 131.725C249.727 132.667 251.066 133.377 251.769 134.617C252.213 135.477 252.313 136.473 252.048 137.403C251.782 138.334 251.171 139.128 250.34 139.623C250.236 139.695 250.118 139.743 249.993 139.765C249.868 139.787 249.741 139.781 249.618 139.749C249.502 139.68 249.401 139.59 249.32 139.481C249.24 139.373 249.182 139.25 249.15 139.119C247.865 135.83 245.935 132.586 242.849 130.868C239.764 129.15 235.33 129.503 233.307 132.398C232.827 133.085 232.504 133.869 232.085 134.596C229.861 138.458 225.093 140.286 220.638 140.167C220.202 140.191 219.769 140.089 219.389 139.873C218.669 139.376 218.701 138.321 218.812 137.453L219.279 133.769C219.373 133.029 219.509 132.212 220.095 131.75C220.92 131.099 222.111 131.51 223.162 131.495C223.958 131.457 224.724 131.176 225.355 130.689C225.986 130.202 226.452 129.533 226.69 128.772C226.902 128.004 226.901 127.192 226.686 126.424C226.471 125.657 226.05 124.962 225.47 124.416C224.988 123.964 224.342 123.395 224.596 122.785C224.698 122.617 224.835 122.472 224.998 122.362C225.162 122.252 225.347 122.179 225.542 122.149C227.43 121.6 229.424 121.457 231.281 120.81C233.137 120.163 234.938 118.839 235.377 116.923C235.512 116.336 235.573 115.625 236.101 115.334C236.365 115.222 236.65 115.164 236.937 115.163C237.943 115.02 238.86 114.505 239.506 113.72C240.152 112.935 240.48 111.936 240.427 110.921C241.317 110.3 242.563 110.757 243.424 111.418C244.284 112.079 245.044 112.953 246.092 113.238C248.043 113.769 249.93 112.041 251.952 112.033C252.803 112.03 253.683 112.33 254.484 112.042C255.295 111.75 255.779 110.942 256.402 110.346C257.025 109.749 258.117 109.385 258.692 110.028L258.202 106.401C259.188 106.651 260.216 106.686 261.217 106.505C262.218 106.324 263.168 105.931 264.004 105.352L257.677 103.215C257.457 103.16 257.253 103.051 257.085 102.898C256.625 102.403 257.082 101.631 257.456 101.068C258.351 99.7208 258.501 97.5019 257.03 96.8313C256.025 96.3736 254.872 96.923 253.908 97.4606L249.29 100.036C249.143 100.913 250.217 101.411 250.882 102.002C251.284 102.36 251.569 102.831 251.699 103.354C251.829 103.876 251.798 104.426 251.609 104.93C251.421 105.435 251.085 105.871 250.644 106.18C250.204 106.49 249.68 106.66 249.141 106.666C249.445 107.061 249.657 107.52 249.76 108.008C249.862 108.496 249.854 109.001 249.735 109.486L246.628 109.709C246.279 109.779 245.917 109.709 245.62 109.513C245.288 109.217 245.333 108.7 245.256 108.262C245.07 107.206 244.036 106.465 242.98 106.276C241.924 106.086 240.844 106.329 239.798 106.569C239.354 106.729 238.867 106.718 238.431 106.538C238.181 106.375 237.991 106.135 237.89 105.855C237.431 104.744 237.86 103.437 238.596 102.487C239.332 101.536 240.34 100.842 241.245 100.05C243.409 98.1512 245 95.6846 245.836 92.9293C247.547 92.2126 249.317 91.2388 251.028 90.5221C253.665 89.1869 256.622 88.614 259.567 88.8676L265.36 88.9782C267.075 89.011 268.837 89.053 270.423 89.7068C272.009 90.3607 273.402 91.7749 273.512 93.4868C273.545 93.6806 273.528 93.8796 273.463 94.0651C273.398 94.2507 273.287 94.4167 273.14 94.5476C272.916 94.6698 272.663 94.727 272.408 94.7126C270.808 94.7688 270.126 95.1674 268.527 95.2236Z" fill="#3F3D56"/>
<path d="M222.354 113.379C222.58 113.164 222.743 112.892 222.825 112.591C222.906 112.29 222.903 111.973 222.816 111.674C222.265 111.461 221.666 111.407 221.086 111.516C220.506 111.626 219.968 111.895 219.533 112.294C219.19 112.641 218.894 113.032 218.653 113.456C217.892 114.698 217.219 116.182 217.66 117.57C217.696 117.721 217.762 117.864 217.854 117.99C217.946 118.115 218.062 118.221 218.195 118.302C218.393 118.381 218.606 118.414 218.818 118.399C219.657 118.398 220.495 118.347 221.327 118.245C221.838 118.182 222.432 118.038 222.629 117.562C222.889 116.937 222.26 116.23 222.444 115.578C222.564 115.287 222.747 115.025 222.979 114.811C223.094 114.704 223.183 114.571 223.237 114.423C223.292 114.276 223.312 114.117 223.295 113.961C223.221 113.655 222.753 113.481 222.584 113.747" fill="#3F3D56"/>
<path d="M226.703 107.741C225.958 107.57 225.19 107.522 224.429 107.598C224.261 107.593 224.094 107.631 223.945 107.708C223.8 107.815 223.695 107.967 223.646 108.141C223.486 108.656 223.525 109.213 223.757 109.701C223.989 110.189 224.395 110.571 224.897 110.772C225.17 110.835 225.431 110.94 225.672 111.084C226.315 111.583 225.905 112.603 226.027 113.407C226.163 114.311 227.038 115.069 226.878 115.969C226.751 116.678 225.994 117.239 226.116 117.948C226.244 118.691 227.187 118.915 227.939 118.974C228.374 119.051 228.823 118.999 229.23 118.826C229.638 118.547 229.928 118.127 230.044 117.647C230.352 116.731 230.481 115.764 230.425 114.799C230.422 114.361 230.312 113.929 230.104 113.543C229.878 113.237 229.627 112.949 229.354 112.684C227.914 111.009 229.43 108.51 226.703 107.741Z" fill="#3F3D56"/>
<path d="M220.353 411.142L233.871 411.142H233.872C236.156 411.142 238.347 412.048 239.963 413.661C241.579 415.274 242.486 417.462 242.487 419.744V420.023L220.353 420.024L220.353 411.142Z" fill="#2F2E41"/>
<path d="M183.186 411.142L196.704 411.141H196.705C198.99 411.142 201.181 412.048 202.797 413.661C204.412 415.274 205.32 417.462 205.32 419.744V420.023L183.186 420.024L183.186 411.142Z" fill="#2F2E41"/>
<path d="M226.893 414.292L235.519 414.292C236.977 414.292 238.376 414.87 239.407 415.9C240.437 416.929 241.017 418.325 241.017 419.781V419.959L226.894 419.96L226.893 414.292Z" fill="#2F2E41"/>
<path d="M243.715 412.203L252.24 413.52C253.68 413.742 254.974 414.527 255.835 415.702C256.696 416.877 257.055 418.345 256.832 419.783L256.805 419.96L242.847 417.804L243.715 412.203Z" fill="#2F2E41"/>
<path d="M266.906 419.853L245.553 419.852V419.582C245.553 417.381 246.429 415.271 247.988 413.714C249.546 412.158 251.66 411.283 253.864 411.283H253.865L266.907 411.284L266.906 419.853Z" fill="#2F2E41"/>
<path d="M330.281 420.867H90.0892C89.9849 420.867 89.8849 420.817 89.8112 420.729C89.7375 420.641 89.696 420.521 89.696 420.396C89.696 420.271 89.7375 420.151 89.8112 420.063C89.8849 419.975 89.9849 419.925 90.0892 419.925H330.281C330.385 419.925 330.485 419.975 330.559 420.063C330.633 420.151 330.674 420.271 330.674 420.396C330.674 420.521 330.633 420.641 330.559 420.729C330.485 420.817 330.385 420.867 330.281 420.867Z" fill="#CACACA"/>
<path d="M119.02 434.715L125.607 434.715L128.74 409.347L119.019 409.347L119.02 434.715Z" fill="#A0616A"/>
<path d="M117.341 432.568L130.312 432.567H130.312C131.398 432.567 132.473 432.781 133.476 433.196C134.479 433.61 135.39 434.218 136.158 434.985C136.925 435.751 137.534 436.661 137.95 437.663C138.365 438.664 138.579 439.737 138.579 440.821V441.09L117.341 441.09L117.341 432.568Z" fill="#2F2E41"/>
<path d="M160.926 434.715L167.512 434.715L170.646 409.347L160.925 409.347L160.926 434.715Z" fill="#A0616A"/>
<path d="M159.246 432.568L172.217 432.567H172.217C173.303 432.567 174.378 432.781 175.381 433.196C176.384 433.61 177.295 434.218 178.063 434.985C178.83 435.751 179.439 436.661 179.855 437.663C180.27 438.664 180.484 439.737 180.484 440.821V441.09L159.246 441.09L159.246 432.568Z" fill="#2F2E41"/>
<path d="M400.5 412.239L394.27 409.708L394.086 409.633L390.646 412.239C388.759 412.238 386.944 412.967 385.58 414.273C384.217 415.578 383.41 417.36 383.328 419.246C383.319 419.349 383.319 419.458 383.319 419.566V419.806H402.144V412.239H400.5Z" fill="#151716"/>
<path d="M307.253 411.612L294.449 411.611H294.449C292.285 411.611 290.209 412.47 288.679 413.998C287.149 415.525 286.289 417.598 286.289 419.759V420.023L307.252 420.024L307.253 411.612Z" fill="#2F2E41"/>
<path d="M342.453 411.612L329.65 411.611H329.649C327.485 411.611 325.41 412.47 323.88 413.998C322.35 415.525 321.49 417.598 321.49 419.759V420.023L342.453 420.024L342.453 411.612Z" fill="#2F2E41"/>
<path d="M290.095 402.815C289.939 408.655 288.965 414.444 287.201 420.01C287.162 420.14 287.118 420.267 287.076 420.396H276.276C276.288 420.28 276.3 420.151 276.311 420.01C277.031 411.698 272.917 361.711 267.953 353.059C268.388 353.761 290.932 376.404 290.095 402.815Z" fill="#F0F0F0"/>
<path d="M289.139 420.009C289.048 420.139 288.954 420.268 288.856 420.396H280.687C280.748 420.286 280.82 420.156 280.903 420.009C282.253 417.576 286.248 410.3 289.956 402.758C293.939 394.653 297.596 386.241 297.288 383.196C297.384 383.882 300.141 404.816 289.139 420.009Z" fill="#F0F0F0"/>
<path d="M316.514 410.806C316.428 413.992 315.889 417.149 314.913 420.186C314.891 420.256 314.867 420.325 314.844 420.396H308.87C308.876 420.333 308.882 420.262 308.889 420.186C309.287 415.652 307.011 388.386 304.265 383.667C304.506 384.05 316.977 396.4 316.514 410.806Z" fill="#F0F0F0"/>
<path d="M316.035 420.185C315.984 420.256 315.932 420.326 315.878 420.396H311.339C311.374 420.336 311.413 420.265 311.46 420.185C312.209 418.861 314.429 414.901 316.489 410.796C318.702 406.384 320.733 401.805 320.562 400.148C320.615 400.521 322.147 411.916 316.035 420.185Z" fill="#F0F0F0"/>
<path d="M260.395 410.806C260.309 413.992 259.77 417.149 258.794 420.186C258.773 420.256 258.749 420.325 258.725 420.396H252.751C252.757 420.333 252.764 420.262 252.77 420.186C253.169 415.652 250.893 388.386 248.147 383.667C248.388 384.05 260.859 396.4 260.395 410.806Z" fill="#F0F0F0"/>
<path d="M259.917 420.185C259.866 420.256 259.814 420.326 259.76 420.396H255.221C255.255 420.336 255.295 420.265 255.341 420.185C256.091 418.861 258.31 414.901 260.37 410.796C262.583 406.384 264.615 401.805 264.444 400.148C264.497 400.521 266.029 411.916 259.917 420.185Z" fill="#F0F0F0"/>
<path d="M222.103 413.38H228.967L232.233 386.942L222.102 386.942L222.103 413.38Z" fill="#FFB7B7"/>
<path d="M184.937 413.38H191.802L195.067 386.942L184.936 386.942L184.937 413.38Z" fill="#FFB7B7"/>
<path d="M182.14 293.557V363.362L183.91 408.425H198.511L203.378 323.6L213.112 358.502L219.306 407.542L237.004 406.658L225.058 293.557H182.14Z" fill="#2F2E41"/>
<path d="M199.114 230.821C204.978 230.821 209.732 226.074 209.732 220.218C209.732 214.362 204.978 209.615 199.114 209.615C193.249 209.615 188.495 214.362 188.495 220.218C188.495 226.074 193.249 230.821 199.114 230.821Z" fill="#FFB8B8"/>
<path d="M194.701 233.584L191.874 236.565L189.219 296.208L220.633 295.324L213.112 243.192L206.475 236.841L203.108 233.584H194.701Z" fill="#0886C8"/>
<path d="M189.662 240.099L192.047 236.235L192.759 244.517C192.759 244.517 198.511 263.073 198.069 279.42C197.626 295.766 200.281 334.203 196.741 334.645C193.202 335.086 178.158 335.97 178.158 332.877C178.158 329.785 177.273 247.61 177.273 247.61L189.662 240.099Z" fill="#3F3D56"/>
<path d="M205.763 236.235L211.785 240.983L225.058 245.843C225.058 245.843 225.058 302.393 227.713 315.647C230.368 328.901 235.235 330.227 229.04 330.668C222.846 331.11 223.289 328.901 223.289 328.901C223.289 328.901 227.713 306.811 221.961 302.393C216.209 297.975 205.148 272.351 206.033 258.213C206.918 244.075 204.878 236.235 205.763 236.235Z" fill="#3F3D56"/>
<path d="M189.068 223.536C189.068 223.536 189.97 221.954 189.76 216.668C189.55 211.383 197.611 214.372 204.346 213.868C211.081 213.364 209.655 222.692 209.655 222.692C209.655 222.692 210.141 222.137 211.181 217.635C212.221 213.133 209.859 208.647 209.859 208.647C209.164 203.916 205.415 205.433 205.415 205.433C207.22 206.134 206.873 207.635 206.873 207.635C205.345 204.959 201.596 206.476 201.596 206.476C196.596 203.343 191.528 207.468 191.528 207.468C185.488 208.837 189.03 213.634 189.03 213.634C182.956 216.699 189.068 223.536 189.068 223.536Z" fill="#2F2E41"/>
<path d="M178.172 326.489C178.622 326.014 178.963 325.446 179.169 324.826C179.376 324.205 179.444 323.547 179.368 322.898C179.292 322.248 179.075 321.623 178.731 321.067C178.387 320.51 177.925 320.036 177.378 319.677L179.291 309.636L173.464 306.987L170.962 321.204C170.419 322.163 170.246 323.286 170.478 324.363C170.709 325.439 171.327 326.393 172.216 327.045C173.105 327.696 174.202 327.999 175.3 327.897C176.398 327.795 177.42 327.294 178.172 326.489Z" fill="#FFB7B7"/>
<path d="M179.486 247.61L178.311 246.981C178.311 246.981 171.964 249.377 172.406 251.144C172.849 252.911 168.867 314.763 170.194 316.972C171.521 319.181 182.14 317.414 182.14 317.414L179.486 247.61Z" fill="#3F3D56"/>
<path d="M229.995 322.325C229.484 321.917 229.068 321.401 228.777 320.815C228.487 320.229 228.329 319.587 228.314 318.933C228.299 318.279 228.427 317.63 228.691 317.032C228.954 316.433 229.346 315.899 229.838 315.468L226.552 305.788L231.957 302.359L236.404 316.095C237.075 316.969 237.401 318.058 237.321 319.156C237.242 320.254 236.761 321.284 235.971 322.052C235.181 322.82 234.137 323.272 233.035 323.322C231.934 323.373 230.852 323.018 229.995 322.325Z" fill="#FFB7B7"/>
<path d="M224.808 313.886C224.808 313.886 235.57 314.169 236.579 311.798C237.587 309.426 225.073 248.719 225.266 246.908C225.459 245.097 218.842 243.6 218.842 243.6L217.765 244.386L224.808 313.886Z" fill="#3F3D56"/>
<path d="M272.372 316.617L265.71 284.018L262.783 259.94L256.299 264.129L257.195 290.662L267.544 318.154C267.211 318.786 267.075 319.503 267.151 320.214C267.228 320.924 267.514 321.596 267.974 322.143C268.434 322.69 269.046 323.089 269.733 323.288C270.421 323.487 271.152 323.477 271.833 323.26C272.515 323.043 273.117 322.629 273.562 322.069C274.007 321.51 274.276 320.831 274.334 320.119C274.391 319.407 274.236 318.694 273.887 318.07C273.537 317.446 273.01 316.941 272.372 316.617Z" fill="#FFB7B7"/>
<path d="M210.057 319.138L211.901 285.918L211.29 261.671L219.862 264.873L221.294 291.255L215.058 319.957C215.479 320.534 215.719 321.224 215.747 321.938C215.774 322.652 215.589 323.358 215.214 323.966C214.838 324.574 214.29 325.058 213.639 325.354C212.989 325.651 212.264 325.747 211.558 325.632C210.852 325.516 210.196 325.193 209.674 324.705C209.152 324.216 208.788 323.583 208.627 322.887C208.466 322.191 208.516 321.463 208.771 320.795C209.025 320.127 209.473 319.55 210.057 319.138Z" fill="#FFB7B7"/>
<path d="M228.01 415.72H232.39L234.474 398.85L228.01 398.851L228.01 415.72Z" fill="#FFB7B7"/>
<path d="M244.601 413.785L248.929 414.453L253.572 398.1L247.183 397.114L244.601 413.785Z" fill="#FFB7B7"/>
<path d="M226.724 410.683L226.701 410.561L210.844 324.956C209.586 318.084 210.59 310.989 213.706 304.734L223.304 285.568L251.941 289.442L255.321 313.843L267.365 360.393L267.353 360.431L251.922 409.375L241.809 410.04L250.767 366.35L234.364 329.147L235.521 410.018L226.724 410.683Z" fill="#2F2E41"/>
<path d="M252.607 292.564L252.418 292.269C252.384 292.215 248.906 286.982 239.44 290.476C229.776 294.044 222.289 287.153 222.214 287.083L222.177 287.048L219.989 267.572L217.405 251.76L225.629 250.32L229.672 247.898L245.749 247.612L249.98 250.934L256.926 251.69L257.562 266.097L257.559 266.113L252.607 292.564Z" fill="#FFD391"/>
<path d="M254.912 267.491V255.155L256.865 251.595L256.945 251.593C258.482 251.65 259.936 252.309 260.99 253.428C262.955 255.421 263.845 258.742 263.636 263.298L263.632 263.382L254.912 267.491Z" fill="#FFE4AD"/>
<path d="M220.867 266.15L210.911 264.957L210.903 264.842C210.564 259.885 211.43 256.205 213.479 253.906C214.507 252.676 215.966 251.882 217.558 251.688L217.616 251.685L220.311 254.131L220.867 266.15Z" fill="#FFE4AD"/>
<path d="M249.686 242.641H223.489C222.95 242.64 222.433 242.426 222.052 242.046C221.671 241.665 221.457 241.15 221.456 240.611V231.14C221.453 229.154 221.842 227.187 222.601 225.351C223.359 223.515 224.474 221.846 225.879 220.44C227.284 219.035 228.953 217.92 230.791 217.159C232.628 216.398 234.598 216.006 236.587 216.006C238.576 216.006 240.546 216.398 242.383 217.159C244.221 217.92 245.89 219.035 247.295 220.44C248.701 221.846 249.815 223.515 250.574 225.351C251.333 227.187 251.722 229.154 251.718 231.14V240.611C251.718 241.15 251.503 241.665 251.122 242.046C250.741 242.426 250.225 242.64 249.686 242.641Z" fill="#2F2E41"/>
<path d="M237.195 242.548C243.322 242.548 248.289 237.588 248.289 231.471C248.289 225.353 243.322 220.393 237.195 220.393C231.068 220.393 226.102 225.353 226.102 231.471C226.102 237.588 231.068 242.548 237.195 242.548Z" fill="#FFB7B7"/>
<path d="M247.74 231.817H233.094C232.819 231.817 232.553 231.716 232.347 231.534C232.141 231.352 232.008 231.102 231.973 230.829L231.784 229.314C231.766 229.169 231.7 229.033 231.598 228.927C231.496 228.822 231.362 228.753 231.217 228.73C231.072 228.707 230.923 228.732 230.793 228.801C230.663 228.87 230.56 228.979 230.498 229.112L229.537 231.166C229.446 231.36 229.301 231.525 229.12 231.64C228.939 231.755 228.729 231.816 228.514 231.817H226.289C226.132 231.817 225.976 231.784 225.832 231.721C225.689 231.657 225.56 231.564 225.454 231.448C225.348 231.331 225.268 231.194 225.218 231.045C225.168 230.896 225.15 230.738 225.165 230.582L226.043 221.433C226.061 221.237 226.131 221.049 226.244 220.888C226.357 220.727 226.51 220.599 226.688 220.514C233.395 217.388 240.197 217.392 246.905 220.526C247.075 220.606 247.223 220.727 247.334 220.878C247.446 221.029 247.518 221.206 247.544 221.392L248.858 230.529C248.881 230.689 248.869 230.852 248.824 231.007C248.778 231.162 248.7 231.306 248.594 231.428C248.488 231.55 248.357 231.648 248.209 231.715C248.062 231.782 247.902 231.817 247.74 231.817Z" fill="#2F2E41"/>
<path d="M253.766 317.653C254.324 317.456 254.832 317.138 255.255 316.724C255.677 316.309 256.003 315.807 256.21 315.253C256.417 314.698 256.5 314.106 256.453 313.516C256.405 312.927 256.229 312.354 255.937 311.84L265.432 301.032L258.02 300.011L250.139 310.431C249.307 310.979 248.704 311.813 248.446 312.775C248.189 313.737 248.293 314.76 248.74 315.65C249.187 316.541 249.946 317.236 250.872 317.605C251.798 317.974 252.828 317.991 253.766 317.653Z" fill="#9F616A"/>
<path d="M265.217 413.443L258.595 413.442L255.444 387.936L265.219 387.937L265.217 413.443Z" fill="#9F616A"/>
<path d="M299.884 407.909L293.559 409.87L282.976 386.444L292.311 383.55L299.884 407.909Z" fill="#9F616A"/>
<path d="M303.401 413.531L283.007 419.853L282.927 419.595C282.274 417.493 282.483 415.218 283.509 413.27C284.536 411.322 286.295 409.861 288.4 409.209L288.401 409.208L300.856 405.347L303.401 413.531Z" fill="#2F2E41"/>
<path d="M260.146 295.849L250.338 307.066L258.017 307.755L260.146 295.849Z" fill="#E6E6E6"/>
<path d="M256.313 310.307C256.313 310.307 252.906 312.007 252.48 319.662C252.055 327.316 253.758 347.303 253.758 347.303C253.758 347.303 252.055 356.232 253.758 364.311C255.461 372.39 252.055 401.729 254.184 401.729C256.313 401.729 267.385 403.005 267.811 401.729C268.237 400.453 268.663 381.319 268.663 381.319C268.663 381.319 272.07 371.538 268.663 365.587C268.663 365.587 280.558 386.327 288.252 402.156C289.935 405.62 302.73 401.73 300.601 397.903C298.472 394.076 293.362 376.642 293.362 376.642C293.362 376.642 289.529 363.886 282.716 358.358L286.123 331.144C286.123 331.144 293.362 312.859 289.105 310.308C284.847 307.757 256.313 310.307 256.313 310.307Z" fill="#2F2E41"/>
<path d="M269.089 240.996C275.204 240.996 280.161 236.046 280.161 229.94C280.161 223.834 275.204 218.885 269.089 218.885C262.974 218.885 258.017 223.834 258.017 229.94C258.017 236.046 262.974 240.996 269.089 240.996Z" fill="#A0616A"/>
<path d="M281.438 241.846L267.674 249.925C267.674 249.925 262.403 252.889 260.435 258.004C258.336 263.456 259.556 271.132 260.435 272.887C262.138 276.289 259.72 284.793 259.72 284.793L257.591 304.353C257.591 304.353 249.926 311.581 255.888 312.432C261.85 313.282 272.496 312.007 278.884 312.432C285.271 312.857 292.51 313.708 290.381 309.455C288.252 305.201 285.697 302.226 288.252 293.723C290.252 287.068 290.165 262.186 290.033 251.678C290.015 250.235 289.627 248.821 288.907 247.57C288.187 246.318 287.158 245.272 285.918 244.53L281.438 241.846Z" fill="#0078B7"/>
<path opacity="0.1" d="M275.266 255.241L276.543 281.179L264.162 306.214L262.063 305.416L274.838 282.029L275.266 255.241Z" fill="black"/>
<path opacity="0.1" d="M289.317 286.707V283.729L274.84 307.542L289.317 286.707Z" fill="black"/>
<path d="M261.231 219.698L259.402 218.968C259.402 218.968 263.23 214.761 268.554 215.126L267.056 213.48C267.056 213.48 270.717 212.017 274.045 215.858C275.795 217.877 277.819 220.251 279.082 222.924H281.042L280.224 224.723L283.087 226.522L280.148 226.2C280.427 227.753 280.331 229.35 279.87 230.859L279.951 232.281C279.951 232.281 276.542 227.015 276.542 226.284V228.113C276.542 228.113 274.712 226.467 274.712 225.369L273.713 226.65L273.214 224.638L267.057 226.65L268.055 225.003L264.227 225.552L265.725 223.54C265.725 223.54 261.399 225.918 261.232 227.93C261.066 229.943 258.903 232.503 258.903 232.503L257.904 230.674C257.904 230.674 256.407 222.442 261.231 219.698Z" fill="#2F2E41"/>
<path d="M268.394 318.856C268.909 318.563 269.352 318.161 269.694 317.678C270.036 317.195 270.268 316.643 270.373 316.061C270.478 315.479 270.454 314.881 270.303 314.309C270.152 313.737 269.877 313.205 269.497 312.751L276.92 300.431L269.444 300.74L263.541 312.392C262.819 313.079 262.375 314.006 262.292 314.999C262.209 315.991 262.494 316.979 263.092 317.776C263.69 318.573 264.56 319.123 265.538 319.322C266.515 319.521 267.531 319.355 268.394 318.856Z" fill="#9F616A"/>
<path d="M285.272 247.375L288.465 246.737C288.465 246.737 298.047 253.753 295.066 267.785C292.085 281.817 278.884 303.078 278.884 303.078C278.884 303.078 275.902 306.905 275.051 307.756C274.2 308.606 272.496 307.756 273.348 309.031C274.2 310.307 272.07 311.157 272.07 311.157C272.07 311.157 262.702 311.157 263.554 307.756C264.405 304.354 278.884 280.115 278.884 280.115L276.755 257.578C276.755 257.578 275.051 246.524 285.272 247.375Z" fill="#0078B7"/>
<path d="M81.3515 224.87V225.032H76.9052C76.2227 225.032 75.5681 225.303 75.0855 225.785C74.6029 226.267 74.3318 226.92 74.3318 227.602V237.008C74.3318 237.689 74.6029 238.343 75.0855 238.825C75.5681 239.307 76.2227 239.578 76.9052 239.578H101.298C101.981 239.578 102.635 239.307 103.118 238.825C103.6 238.343 103.871 237.689 103.871 237.008V227.602C103.871 226.92 103.6 226.267 103.118 225.785C102.635 225.303 101.981 225.032 101.298 225.032H84.5165V224.87L81.3515 224.87Z" fill="#3F3D56"/>
<path d="M146.006 263.938C146.109 277.82 137.227 275.721 126.396 275.721C115.566 275.721 107.731 277.788 106.787 263.938C105.286 241.93 111.075 225.449 126.396 225.449C142.245 225.449 145.842 241.93 146.006 263.938Z" fill="#2F2E41"/>
<path d="M86.6921 234.494C87.0421 235.201 87.2325 235.976 87.2501 236.765C87.2676 237.553 87.1118 238.336 86.7936 239.058C86.4754 239.779 86.0026 240.423 85.4085 240.942C84.8144 241.462 84.1134 241.845 83.3549 242.065L82.3667 261.21L74.3318 255.305L76.502 238.03C76.2166 236.733 76.4176 235.377 77.0667 234.218C77.7159 233.059 78.7682 232.178 80.0243 231.743C81.2803 231.307 82.6529 231.346 83.8818 231.853C85.1107 232.36 86.1107 233.3 86.6921 234.494Z" fill="#A0616A"/>
<path d="M159.147 342.689C159.583 342.031 159.869 341.286 159.986 340.506C160.102 339.726 160.046 338.93 159.821 338.174C159.596 337.418 159.208 336.721 158.683 336.131C158.159 335.541 157.512 335.073 156.787 334.76L158.211 315.642L149.498 320.494L149.481 337.905C149.035 339.156 149.064 340.526 149.563 341.757C150.061 342.988 150.995 343.994 152.186 344.584C153.378 345.173 154.744 345.306 156.027 344.957C157.31 344.608 158.42 343.801 159.147 342.689Z" fill="#A0616A"/>
<path d="M157.166 332.156L156.88 332.104C154.481 331.67 152.053 331.232 149.918 330.773L149.706 330.728L149.706 330.512C149.669 320.788 149.632 311.066 149.578 301.255C144.479 290.992 142.335 279.517 143.386 268.108L143.398 267.988L143.497 267.917C144.427 267.273 145.511 266.887 146.639 266.8C147.767 266.713 148.898 266.927 149.916 267.421C150.911 267.965 151.762 268.738 152.397 269.676C153.033 270.614 153.434 271.691 153.568 272.815C155.51 283.381 157.52 294.322 159.762 305.104L159.77 305.143L159.766 305.183C158.935 313.976 158.077 323.069 157.195 331.866L157.166 332.156Z" fill="#FFD391"/>
<path d="M152.872 425.674L152.82 425.426C149.739 410.873 146.764 399.022 143.888 387.561C140.441 373.825 137.174 360.81 133.876 343.967C134.329 365.207 135.381 380.467 136.59 398.007C137.136 405.927 137.701 414.117 138.274 423.678L138.291 423.97L137.999 423.962C127.69 423.699 117.129 423.063 106.915 422.448L106.645 422.432L106.663 422.162C108.597 393.701 109.203 375.207 109.645 361.703C110.579 333.212 110.722 328.833 121.35 304.721C121.753 303.807 124.157 301.104 126.799 301.516L147.71 304.765L147.747 304.949C148.337 307.917 151.265 316.923 155.318 329.387C163.982 356.032 177.074 396.299 181.164 420.301L181.211 420.573L180.937 420.612C174.997 421.455 170.721 422.333 166.586 423.182C162.674 423.985 158.629 424.816 153.123 425.636L152.872 425.674Z" fill="#2F2E41"/>
<path d="M134.698 312.297C129.117 312.298 123.6 310.364 119.646 306.599C119.027 306.24 118.505 305.738 118.122 305.135C117.738 304.532 117.506 303.846 117.444 303.135C117.342 302.484 117.385 301.818 117.568 301.184C117.752 300.551 118.072 299.965 118.507 299.468C114.629 294.782 110.626 289.939 106.794 285.007L106.688 284.871L106.811 284.637C109.318 279.854 111.911 274.909 114.4 270.022C114.574 269.596 114.859 269.225 115.226 268.947C115.593 268.67 116.028 268.496 116.486 268.445C116.883 268.37 117.292 268.377 117.687 268.465C118.082 268.553 118.454 268.721 118.782 268.957L118.787 268.838C118.891 266.365 118.995 263.891 119.102 261.546L119.113 261.296L119.364 261.29C124.151 261.185 129.101 261.075 133.963 260.787L134.148 260.776L136.56 266.148C140.477 265.768 144.418 266.567 147.876 268.441L148.035 268.526L148.017 268.705C147.047 277.937 147.258 287.254 148.645 296.432C148.569 300.623 148.489 304.906 147.637 308.32L147.612 308.42L147.527 308.477C143.726 310.996 139.259 312.326 134.698 312.297Z" fill="#FFD391"/>
<path d="M114.155 288.994L113.833 288.847C110.083 286.968 106.321 284.884 102.683 282.868L102.181 282.771C92.6019 280.851 87.3254 279.793 78.6836 274.733L78.6173 274.694L78.5816 274.626C74.2545 266.372 73.0475 259.157 74.1282 248.006L74.1498 247.782L74.3738 247.764C75.3106 247.688 76.8375 247.637 78.314 247.588C79.7505 247.54 81.236 247.491 82.1467 247.419L82.358 247.403L82.4233 247.604C83.5556 251.095 84.5176 254.353 85.5361 257.802C86.5829 261.347 87.6649 265.011 88.9828 269.082C93.8082 270.467 106.744 270.053 110.766 269.506C111.969 269.417 113.175 269.632 114.273 270.131C115.371 270.629 116.326 271.396 117.05 272.359L117.125 272.452L117.106 272.57C116.22 277.966 115.203 283.394 114.22 288.643L114.155 288.994Z" fill="#FFD391"/>
<path d="M137.734 252.404C141.229 246.019 138.879 238.013 132.485 234.522C126.09 231.032 118.072 233.379 114.577 239.764C111.081 246.149 113.431 254.155 119.826 257.645C126.22 261.135 134.238 258.789 137.734 252.404Z" fill="#A0616A"/>
<path d="M111.084 245.298H116.303L118.605 238.861L119.066 245.298H121.56L122.903 241.543L123.172 245.298H141.707C141.707 241.599 140.236 238.051 137.616 235.436C134.996 232.82 131.443 231.35 127.739 231.35H125.052C121.348 231.35 117.795 232.82 115.175 235.436C112.556 238.051 111.084 241.599 111.084 245.298Z" fill="#2F2E41"/>
<path d="M400.655 414.147L394.817 414.146L392.039 391.627L400.656 391.628L400.655 414.147Z" fill="#FFB7B7"/>
<path d="M386.982 408.713L381.474 410.651L371.38 390.33L379.509 387.471L386.982 408.713Z" fill="#FFB7B7"/>
<path d="M386.201 406.965L379.485 406.646L379.287 406.636L376.907 410.236C375.126 410.862 373.656 412.152 372.803 413.836C371.95 415.52 371.78 417.468 372.329 419.274C372.355 419.375 372.391 419.477 372.427 419.58L372.506 419.806L390.264 413.558L387.752 406.419L386.201 406.965Z" fill="#151716"/>
<path d="M402.717 317.049C408.058 316.842 401.441 359.406 401.441 359.406C401.441 359.406 403.377 396.776 402.967 398.737C402.556 400.698 402.915 405.988 402.915 405.988C401.868 404.083 391.072 405.52 391.072 405.52L389.604 367.646L382.105 337.3L371.709 357.642L381.673 388.865C381.673 388.865 385.708 392.598 385.279 394.074C384.85 395.55 374.28 398.877 372.338 398.952C370.396 399.028 371.273 396.562 371.179 394.134C371.085 391.707 361.945 369.205 358.73 361.549C355.516 353.893 358.015 343.097 359.656 335.253C361.297 327.408 369.93 312.687 369.93 312.687C380.646 300.6 397.375 317.256 402.717 317.049Z" fill="#151716"/>
<path d="M337.625 282.651C337.917 283.21 338.329 283.698 338.83 284.081C339.332 284.464 339.911 284.732 340.528 284.866C341.144 285.001 341.782 284.999 342.398 284.86C343.013 284.721 343.591 284.449 344.09 284.063L356.934 292.443L356.895 284.473L344.704 277.737C343.999 276.942 343.028 276.433 341.973 276.306C340.919 276.179 339.854 276.444 338.982 277.05C338.109 277.655 337.489 278.56 337.239 279.593C336.989 280.625 337.126 281.713 337.625 282.651Z" fill="#A0616A"/>
<path d="M399.944 323.872C386.698 323.873 379.399 321.221 375.522 318.854C370.783 315.959 369.972 312.906 369.939 312.777L369.93 312.74L370.391 306.935L370.593 306.483C371.523 304.402 371.646 302.05 370.939 299.883L370.925 299.838L370.928 299.792L374.025 259.623L384.986 256.033L388.174 252.829L402.371 252.623L404.349 256.633L415.541 260.847L410.042 293.576L407.406 298.119L408.467 303.068L408.46 303.113L405.002 323.752L404.812 323.76C403.106 323.836 401.484 323.874 399.944 323.872Z" fill="#3F3D56"/>
<path d="M365.676 298.812L360.479 295.731L360.154 295.261C359.492 294.309 358.616 293.526 357.597 292.973C356.578 292.421 355.444 292.116 354.285 292.081L354.224 292.079L347.067 287.872L350.034 279.181L361.254 282.495L369.076 263.06C369.505 261.993 370.223 261.066 371.148 260.382C372.073 259.697 373.17 259.283 374.316 259.185C375.462 259.087 376.613 259.309 377.641 259.827C378.669 260.344 379.533 261.136 380.138 262.115C380.757 263.138 381.078 264.314 381.065 265.51V278.227L381.018 278.29L365.676 298.812Z" fill="#3F3D56"/>
<path d="M414.97 314.9L408.507 308.436L412.621 298.411L418.584 290.269C412.23 287.176 407.461 279.848 404.005 273.782L403.966 273.714L404.826 266.974C405.028 265.398 405.659 263.907 406.652 262.666C407.515 261.586 408.624 260.729 409.886 260.166C411.148 259.603 412.526 259.35 413.906 259.429C415.286 259.508 416.627 259.916 417.817 260.619C419.006 261.322 420.011 262.3 420.745 263.471L432.333 289.232L432.203 289.426L422.882 305.315L420.338 306.965L414.97 314.9Z" fill="#3F3D56"/>
<path d="M405.464 239.111C405.038 242.217 403.396 245.027 400.9 246.924C398.403 248.82 395.256 249.648 392.149 249.225C389.043 248.802 386.231 247.163 384.332 244.669C382.433 242.174 381.602 239.028 382.021 235.921L382.044 235.753C382.534 232.687 384.21 229.937 386.709 228.096C389.209 226.255 392.332 225.47 395.405 225.911C398.478 226.351 401.254 227.982 403.135 230.452C405.017 232.921 405.852 236.031 405.461 239.111L405.464 239.111Z" fill="#FFB7B7"/>
<path d="M402.454 245.204C403.061 243.97 403.685 242.646 403.515 241.281C403.344 239.916 402.005 238.611 400.691 239.017C399.905 239.26 399.311 240.036 398.49 240.075C397.359 240.13 396.711 238.836 396.359 237.761L394.926 233.38C393.55 234.452 391.955 235.208 390.253 235.592C388.551 235.977 386.786 235.981 385.082 235.605C383.752 235.3 382.408 234.707 381.627 233.588C380.847 232.468 380.851 230.731 381.922 229.885C382.447 229.469 383.145 229.312 383.647 228.869C383.958 228.594 384.173 228.226 384.259 227.82C384.345 227.414 384.297 226.991 384.124 226.614C383.951 226.236 383.661 225.925 383.297 225.725C382.933 225.526 382.515 225.448 382.103 225.505L385.712 225.054L384.636 223.11C385.045 223.388 385.507 223.578 385.993 223.667C386.48 223.756 386.979 223.743 387.46 223.628C388.431 223.453 389.345 223.053 390.294 222.787C392.596 222.199 395.027 222.379 397.217 223.298C399.408 224.218 401.238 225.828 402.43 227.883C403.318 227.586 404.275 227.567 405.174 227.826C406.074 228.086 406.873 228.613 407.466 229.337C408.432 230.563 408.695 232.199 408.732 233.759C408.802 236.835 408.132 239.883 406.776 242.646C406.388 243.524 405.829 244.316 405.134 244.977C404.783 245.304 404.365 245.551 403.909 245.7C403.453 245.85 402.97 245.897 402.494 245.84" fill="#151716"/>
<path d="M401.181 316.884C401.211 316.265 401.377 315.66 401.667 315.113C401.956 314.565 402.363 314.088 402.857 313.715C403.351 313.342 403.921 313.081 404.527 312.953C405.133 312.824 405.76 312.829 406.364 312.969L409.518 309.366L413.719 312.969L409.518 318.362C409.217 319.361 408.561 320.214 407.672 320.76C406.784 321.306 405.726 321.507 404.698 321.325C403.671 321.143 402.745 320.59 402.097 319.772C401.448 318.953 401.122 317.926 401.181 316.884Z" fill="#FFB7B7"/>
<path d="M343.561 244.587C343.641 255.435 336.709 253.795 328.258 253.795C319.807 253.795 313.693 255.41 312.956 244.587C311.785 227.388 316.303 214.508 328.258 214.508C340.626 214.508 343.433 227.388 343.561 244.587Z" fill="#2F2E41"/>
<path d="M337.121 235.345C339.842 230.374 338.013 224.142 333.035 221.425C328.057 218.708 321.816 220.535 319.095 225.505C316.373 230.476 318.203 236.708 323.181 239.425C328.159 242.142 334.4 240.316 337.121 235.345Z" fill="#A0616A"/>
<path d="M316.357 229.542H320.383L322.16 224.586L322.515 229.542H324.439L325.475 226.651L325.683 229.542H339.982C339.982 226.694 338.847 223.963 336.826 221.949C334.805 219.935 332.064 218.804 329.206 218.804H327.133C324.275 218.804 321.534 219.935 319.513 221.949C317.492 223.963 316.357 226.694 316.357 229.542Z" fill="#2F2E41"/>
<path d="M305.594 413.731H299.093L296 388.691L305.595 388.692L305.594 413.731Z" fill="#FFB7B7"/>
<path d="M340.795 413.731H334.294L331.201 388.691L340.796 388.692L340.795 413.731Z" fill="#FFB7B7"/>
<path d="M343.444 300.244V366.358L341.768 409.039H327.939L323.329 328.698L314.11 361.755L308.243 408.202L291.481 407.365L302.795 300.244H343.444Z" fill="#2F2E41"/>
<path d="M331.547 243.442L334.225 246.266L336.739 302.755L306.986 301.918L314.11 252.543L320.396 246.527L323.586 243.442H331.547Z" fill="#FFD391"/>
<path d="M336.32 249.613L334.061 245.953L333.386 253.797C333.386 253.797 327.938 271.372 328.357 286.854C328.777 302.336 326.262 338.741 329.615 339.159C332.967 339.578 347.215 340.414 347.215 337.485C347.215 334.556 348.053 256.726 348.053 256.726L336.32 249.613Z" fill="#0886C8"/>
<path d="M321.07 245.953L315.367 250.45L302.795 255.053C302.795 255.053 302.795 308.613 300.281 321.166C297.766 333.719 293.157 334.975 299.023 335.393C304.89 335.812 304.471 333.719 304.471 333.719C304.471 333.719 300.281 312.797 305.728 308.613C311.176 304.429 321.653 280.159 320.814 266.769C319.976 253.379 321.908 245.953 321.07 245.953Z" fill="#0886C8"/>
<path d="M347.2 331.435C346.774 330.985 346.452 330.447 346.256 329.86C346.061 329.272 345.996 328.648 346.068 328.033C346.14 327.418 346.346 326.826 346.671 326.299C346.997 325.772 347.434 325.323 347.953 324.983L346.141 315.473L351.66 312.964L354.03 326.43C354.544 327.337 354.707 328.401 354.488 329.421C354.269 330.44 353.683 331.344 352.842 331.961C352 332.578 350.961 332.865 349.921 332.768C348.881 332.671 347.913 332.197 347.2 331.435Z" fill="#FFB7B7"/>
<path d="M345.958 256.726L347.071 256.131C347.071 256.131 353.082 258.4 352.663 260.074C352.244 261.748 356.015 320.329 354.758 322.422C353.501 324.514 343.443 322.84 343.443 322.84L345.958 256.726Z" fill="#0886C8"/>
<path fill-rule="evenodd" clip-rule="evenodd" d="M131.206 136.088C154.837 169.559 199.302 184.001 245.658 188.337C291.849 192.659 339.661 186.921 369.923 180.223C364.733 154.907 355.262 146.182 345.936 145.029C341.153 144.438 336.233 145.799 331.669 148.19C327.11 150.58 322.968 153.966 319.776 157.324L319.091 158.044L318.431 157.301C283.087 117.458 244.426 105.759 210.473 107.256C176.93 108.735 147.919 123.098 131.206 136.088ZM319.142 155.355C283.605 115.685 244.679 103.92 210.393 105.432C175.943 106.951 146.24 121.867 129.397 135.186L128.725 135.717L129.212 136.422C153.19 171.084 198.663 185.774 245.488 190.155C292.357 194.54 340.843 188.622 371.194 181.81L372.063 181.615L371.89 180.742C366.704 154.568 356.838 144.538 346.16 143.218C340.889 142.566 335.589 144.076 330.822 146.573C326.377 148.902 322.343 152.118 319.142 155.355Z" fill="#0886C8"/>
<path d="M131.376 144.583C135.39 144.583 138.644 141.329 138.644 137.315C138.644 133.302 135.39 130.048 131.376 130.048C127.363 130.048 124.109 133.302 124.109 137.315C124.109 141.329 127.363 144.583 131.376 144.583Z" fill="#0886C8"/>
<path d="M319.922 163.558C323.713 163.558 326.785 160.485 326.785 156.695C326.785 152.904 323.713 149.831 319.922 149.831C316.131 149.831 313.058 152.904 313.058 156.695C313.058 160.485 316.131 163.558 319.922 163.558Z" fill="#0886C8"/>
<path d="M370.389 188.59C374.403 188.59 377.656 185.336 377.656 181.323C377.656 177.309 374.403 174.056 370.389 174.056C366.375 174.056 363.122 177.309 363.122 181.323C363.122 185.336 366.375 188.59 370.389 188.59Z" fill="#0886C8"/>
</svg>
