<svg width="92" height="32" viewBox="0 0 92 32" fill="none" xmlns="http://www.w3.org/2000/svg">
<rect y="2.73877" width="26.5225" height="26.5225" rx="13.2613" fill="#0886C8"/>
<path d="M13.5119 22.3085C12.2868 22.3085 11.2288 22.0539 10.3378 21.5448C9.4521 21.0304 8.77061 20.3038 8.2933 19.3651C7.81599 18.4211 7.57733 17.31 7.57733 16.0319C7.57733 14.775 7.81599 13.6718 8.2933 12.7225C8.77591 11.7679 9.44945 11.0254 10.3139 10.4951C11.1784 9.95941 12.194 9.69159 13.3607 9.69159C14.1138 9.69159 14.8245 9.81357 15.4927 10.0575C16.1663 10.2962 16.7603 10.6674 17.2747 11.1713C17.7944 11.6751 18.2028 12.3168 18.4998 13.0964C18.7968 13.8707 18.9453 14.7935 18.9453 15.8648V16.7478H8.92971V14.8068H16.1848C16.1795 14.2552 16.0602 13.7646 15.8269 13.3351C15.5935 12.9002 15.2673 12.5581 14.8484 12.3088C14.4347 12.0596 13.9521 11.935 13.4005 11.935C12.8118 11.935 12.2948 12.0781 11.8493 12.3645C11.4038 12.6456 11.0564 13.0169 10.8071 13.4783C10.5632 13.9344 10.4385 14.4355 10.4332 14.9818V16.6762C10.4332 17.3869 10.5632 17.9968 10.823 18.5059C11.0829 19.0098 11.4462 19.3969 11.9129 19.6674C12.3796 19.9326 12.9259 20.0651 13.5517 20.0651C13.9706 20.0651 14.3498 20.0068 14.6893 19.8901C15.0287 19.7682 15.323 19.5905 15.5723 19.3571C15.8216 19.1238 16.0098 18.8347 16.1371 18.49L18.826 18.7923C18.6562 19.503 18.3327 20.1235 17.8554 20.6538C17.3834 21.1789 16.7788 21.5872 16.0416 21.8789C15.3045 22.1653 14.4612 22.3085 13.5119 22.3085Z" fill="white"/>
<path d="M40.2989 12.1866C40.2246 11.4918 39.9117 10.9508 39.3602 10.5637C38.8139 10.1765 38.1033 9.98297 37.2282 9.98297C36.613 9.98297 36.0853 10.0758 35.6451 10.2614C35.2049 10.447 34.8682 10.6989 34.6348 11.0171C34.4015 11.3354 34.2821 11.6986 34.2768 12.107C34.2768 12.4464 34.3537 12.7408 34.5075 12.99C34.6666 13.2393 34.8814 13.4514 35.1519 13.6264C35.4224 13.7962 35.722 13.9393 36.0508 14.056C36.3796 14.1727 36.7111 14.2708 37.0452 14.3504L38.5726 14.7322C39.1878 14.8754 39.7792 15.069 40.3466 15.3129C40.9194 15.5569 41.4312 15.8645 41.882 16.2357C42.3381 16.607 42.6987 17.0551 42.9639 17.5802C43.2291 18.1052 43.3616 18.7204 43.3616 19.4258C43.3616 20.3804 43.1177 21.221 42.6298 21.9476C42.1418 22.6688 41.4365 23.2337 40.5137 23.642C39.5962 24.0451 38.4851 24.2466 37.1805 24.2466C35.9129 24.2466 34.8125 24.0504 33.8791 23.6579C32.951 23.2655 32.2244 22.6927 31.6993 21.9396C31.1796 21.1865 30.8985 20.269 30.8561 19.1871H33.7597C33.8022 19.7546 33.9772 20.2266 34.2848 20.6031C34.5924 20.9797 34.9928 21.2608 35.486 21.4464C35.9845 21.632 36.5414 21.7248 37.1566 21.7248C37.7983 21.7248 38.3605 21.6294 38.8431 21.4384C39.331 21.2422 39.7129 20.9717 39.9886 20.627C40.2644 20.277 40.405 19.8686 40.4103 19.4019C40.405 18.9776 40.2803 18.6276 40.0364 18.3518C39.7924 18.0707 39.4503 17.8374 39.0102 17.6518C38.5753 17.4608 38.0661 17.2911 37.4828 17.1426L35.6292 16.6653C34.2874 16.3206 33.2267 15.7982 32.4471 15.0982C31.6728 14.3928 31.2857 13.4567 31.2857 12.29C31.2857 11.33 31.5455 10.4894 32.0653 9.76818C32.5903 9.04691 33.3036 8.48739 34.2052 8.08964C35.1068 7.68657 36.1277 7.48504 37.268 7.48504C38.4241 7.48504 39.4371 7.68657 40.3068 8.08964C41.1819 8.48739 41.8687 9.04161 42.3672 9.75227C42.8658 10.4576 43.123 11.2691 43.1389 12.1866H40.2989ZM45.8655 24V11.7808H48.7453V24H45.8655ZM47.3134 10.0466C46.8573 10.0466 46.4648 9.89546 46.136 9.59317C45.8072 9.28556 45.6428 8.91697 45.6428 8.48739C45.6428 8.05251 45.8072 7.68392 46.136 7.38162C46.4648 7.07402 46.8573 6.92022 47.3134 6.92022C47.7748 6.92022 48.1672 7.07402 48.4907 7.38162C48.8196 7.68392 48.984 8.05251 48.984 8.48739C48.984 8.91697 48.8196 9.28556 48.4907 9.59317C48.1672 9.89546 47.7748 10.0466 47.3134 10.0466ZM56.2411 24.2148C55.2812 24.2148 54.422 23.9682 53.6636 23.475C52.9052 22.9817 52.3059 22.2658 51.8657 21.3271C51.4255 20.3883 51.2054 19.2481 51.2054 17.9063C51.2054 16.5486 51.4282 15.4031 51.8737 14.4697C52.3245 13.531 52.9317 12.823 53.6954 12.3457C54.4591 11.863 55.3103 11.6217 56.249 11.6217C56.965 11.6217 57.5537 11.7437 58.0151 11.9877C58.4765 12.2263 58.8424 12.5154 59.1129 12.8548C59.3834 13.1889 59.5929 13.5045 59.7414 13.8015H59.8607V7.70779H62.7484V24H59.9164V22.0748H59.7414C59.5929 22.3718 59.3781 22.6874 59.097 23.0215C58.8159 23.3503 58.4447 23.6314 57.9833 23.8648C57.5219 24.0981 56.9411 24.2148 56.2411 24.2148ZM57.0446 21.8521C57.6544 21.8521 58.1742 21.6877 58.6038 21.3589C59.0333 21.0248 59.3595 20.5607 59.5823 19.9667C59.805 19.3727 59.9164 18.6806 59.9164 17.8904C59.9164 17.1002 59.805 16.4134 59.5823 15.83C59.3648 15.2466 59.0413 14.7932 58.6117 14.4697C58.1874 14.1462 57.6651 13.9844 57.0446 13.9844C56.4028 13.9844 55.8672 14.1515 55.4376 14.4856C55.008 14.8197 54.6845 15.2811 54.4671 15.8698C54.2496 16.4585 54.1409 17.132 54.1409 17.8904C54.1409 18.6541 54.2496 19.3356 54.4671 19.9349C54.6898 20.5289 55.016 20.9982 55.4456 21.343C55.8804 21.6824 56.4134 21.8521 57.0446 21.8521ZM71.2267 24.2387C70.0016 24.2387 68.9435 23.9841 68.0525 23.475C67.1669 22.9605 66.4854 22.2339 66.0081 21.2952C65.5307 20.3512 65.2921 19.2401 65.2921 17.962C65.2921 16.7051 65.5307 15.602 66.0081 14.6527C66.4907 13.698 67.1642 12.9556 68.0287 12.4252C68.8931 11.8896 69.9087 11.6217 71.0755 11.6217C71.8286 11.6217 72.5393 11.7437 73.2075 11.9877C73.881 12.2263 74.475 12.5976 74.9895 13.1014C75.5092 13.6052 75.9176 14.2469 76.2146 15.0266C76.5115 15.8009 76.66 16.7237 76.66 17.795V18.678H66.6445V16.7369H73.8996C73.8943 16.1854 73.775 15.6948 73.5416 15.2652C73.3083 14.8303 72.9821 14.4883 72.5631 14.239C72.1495 13.9897 71.6668 13.8651 71.1153 13.8651C70.5266 13.8651 70.0095 14.0083 69.564 14.2947C69.1185 14.5758 68.7712 14.947 68.5219 15.4084C68.2779 15.8645 68.1533 16.3657 68.148 16.9119V18.6064C68.148 19.317 68.2779 19.9269 68.5378 20.4361C68.7977 20.9399 69.161 21.3271 69.6277 21.5975C70.0944 21.8627 70.6406 21.9953 71.2664 21.9953C71.6854 21.9953 72.0646 21.937 72.404 21.8203C72.7434 21.6983 73.0378 21.5206 73.287 21.2873C73.5363 21.0539 73.7246 20.7649 73.8519 20.4202L76.5407 20.7225C76.371 21.4331 76.0475 22.0536 75.5702 22.584C75.0982 23.109 74.4936 23.5174 73.7564 23.8091C73.0192 24.0955 72.176 24.2387 71.2267 24.2387ZM83.6308 24.2148C82.6708 24.2148 81.8117 23.9682 81.0533 23.475C80.2949 22.9817 79.6956 22.2658 79.2554 21.3271C78.8152 20.3883 78.5951 19.2481 78.5951 17.9063C78.5951 16.5486 78.8179 15.4031 79.2634 14.4697C79.7142 13.531 80.3214 12.823 81.0851 12.3457C81.8488 11.863 82.7 11.6217 83.6387 11.6217C84.3547 11.6217 84.9434 11.7437 85.4048 11.9877C85.8662 12.2263 86.2321 12.5154 86.5026 12.8548C86.7731 13.1889 86.9826 13.5045 87.1311 13.8015H87.2504V7.70779H90.1381V24H87.3061V22.0748H87.1311C86.9826 22.3718 86.7678 22.6874 86.4867 23.0215C86.2056 23.3503 85.8344 23.6314 85.373 23.8648C84.9116 24.0981 84.3308 24.2148 83.6308 24.2148ZM84.4342 21.8521C85.0441 21.8521 85.5639 21.6877 85.9935 21.3589C86.423 21.0248 86.7492 20.5607 86.9719 19.9667C87.1947 19.3727 87.3061 18.6806 87.3061 17.8904C87.3061 17.1002 87.1947 16.4134 86.9719 15.83C86.7545 15.2466 86.431 14.7932 86.0014 14.4697C85.5771 14.1462 85.0547 13.9844 84.4342 13.9844C83.7925 13.9844 83.2569 14.1515 82.8273 14.4856C82.3977 14.8197 82.0742 15.2811 81.8568 15.8698C81.6393 16.4585 81.5306 17.132 81.5306 17.8904C81.5306 18.6541 81.6393 19.3356 81.8568 19.9349C82.0795 20.5289 82.4057 20.9982 82.8353 21.343C83.2701 21.6824 83.8031 21.8521 84.4342 21.8521Z" fill="#151716"/>
</svg>
