<svg width="1920" height="1080" viewBox="0 0 1920 1080" fill="none" xmlns="http://www.w3.org/2000/svg">
<g clip-path="url(#clip0_904_1214)">
<rect width="1920" height="1080" fill="white"/>
<rect width="1920" height="1080" fill="#0886C8" fill-opacity="0.04"/>
<path d="M776.021 889.882L1126.12 687L1476.01 889.505L1475.79 1294.89L1124.88 1499.17L775 1296.66L776.021 889.882Z" fill="#0886C8" fill-opacity="0.06"/>
<path d="M880.074 950.048L1125.94 807.238L1371.65 949.783L1371.5 1235.14L1125.07 1378.93L879.357 1236.39L880.074 950.048Z" fill="#0886C8" fill-opacity="0.04"/>
<path d="M975.078 1005.67L1125.77 918.4L1276.37 1005.51L1276.27 1179.89L1125.24 1267.77L974.639 1180.66L975.078 1005.67Z" fill="#0886C8" fill-opacity="0.04"/>
<path d="M1359.54 126.203L1887.94 -180L2416.01 125.634L2415.68 737.471L1886.07 1045.78L1358 740.146L1359.54 126.203Z" fill="#0886C8" fill-opacity="0.04"/>
<path d="M1516.58 217.01L1887.66 1.47095L2258.5 216.61L2258.27 647.289L1886.35 864.31L1515.5 649.172L1516.58 217.01Z" fill="#0886C8" fill-opacity="0.04"/>
<path d="M1659.97 300.963L1887.4 169.244L2114.7 300.718L2114.56 563.91L1886.6 696.535L1659.31 565.061L1659.97 300.963Z" fill="#0886C8" fill-opacity="0.04"/>
<circle cx="1013.4" cy="855.4" r="3.4" fill="#0886C8"/>
<circle cx="1042.3" cy="855.4" r="3.4" fill="#0886C8"/>
<circle cx="1071.2" cy="855.4" r="3.4" fill="#0886C8"/>
<circle cx="1100.1" cy="855.4" r="3.4" fill="#0886C8"/>
<circle cx="1129" cy="855.4" r="3.4" fill="#0886C8"/>
<circle cx="1157.9" cy="855.4" r="3.4" fill="#0886C8"/>
<circle cx="1013.4" cy="884.3" r="3.4" fill="#0886C8"/>
<circle cx="1042.3" cy="884.3" r="3.4" fill="#0886C8"/>
<circle cx="1071.2" cy="884.3" r="3.4" fill="#0886C8"/>
<circle cx="1100.1" cy="884.3" r="3.4" fill="#0886C8"/>
<circle cx="1129" cy="884.3" r="3.4" fill="#0886C8"/>
<circle cx="1157.9" cy="884.3" r="3.4" fill="#0886C8"/>
<circle cx="1013.4" cy="913.2" r="3.4" fill="#0886C8"/>
<circle cx="1042.3" cy="913.2" r="3.4" fill="#0886C8"/>
<circle cx="1071.2" cy="913.2" r="3.4" fill="#0886C8"/>
<circle cx="1100.1" cy="913.2" r="3.4" fill="#0886C8"/>
<circle cx="1129" cy="913.2" r="3.4" fill="#0886C8"/>
<circle cx="1157.9" cy="913.2" r="3.4" fill="#0886C8"/>
<circle cx="1013.4" cy="942.1" r="3.4" fill="#0886C8"/>
<circle cx="1042.3" cy="942.1" r="3.4" fill="#0886C8"/>
<circle cx="1071.2" cy="942.1" r="3.4" fill="#0886C8"/>
<circle cx="1100.1" cy="942.1" r="3.4" fill="#0886C8"/>
<circle cx="1129" cy="942.1" r="3.4" fill="#0886C8"/>
<circle cx="1157.9" cy="942.1" r="3.4" fill="#0886C8"/>
<circle cx="1013.4" cy="971" r="3.4" fill="#0886C8"/>
<circle cx="1042.3" cy="971" r="3.4" fill="#0886C8"/>
<circle cx="1071.2" cy="971" r="3.4" fill="#0886C8"/>
<circle cx="1100.1" cy="971" r="3.4" fill="#0886C8"/>
<circle cx="1129" cy="971" r="3.4" fill="#0886C8"/>
<circle cx="1157.9" cy="971" r="3.4" fill="#0886C8"/>
<circle cx="1013.4" cy="999.9" r="3.4" fill="#0886C8"/>
<circle cx="1042.3" cy="999.9" r="3.4" fill="#0886C8"/>
<circle cx="1071.2" cy="999.9" r="3.4" fill="#0886C8"/>
<circle cx="1100.1" cy="999.9" r="3.4" fill="#0886C8"/>
<circle cx="1129" cy="999.9" r="3.4" fill="#0886C8"/>
<circle cx="1157.9" cy="999.9" r="3.4" fill="#0886C8"/>
<circle cx="1013.4" cy="1028.8" r="3.4" fill="#0886C8"/>
<circle cx="1042.3" cy="1028.8" r="3.4" fill="#0886C8"/>
<circle cx="1071.2" cy="1028.8" r="3.4" fill="#0886C8"/>
<circle cx="1100.1" cy="1028.8" r="3.4" fill="#0886C8"/>
<circle cx="1129" cy="1028.8" r="3.4" fill="#0886C8"/>
<circle cx="1157.9" cy="1028.8" r="3.4" fill="#0886C8"/>
<circle cx="1013.4" cy="1057.7" r="3.4" fill="#0886C8"/>
<circle cx="1042.3" cy="1057.7" r="3.4" fill="#0886C8"/>
<circle cx="1071.2" cy="1057.7" r="3.4" fill="#0886C8"/>
<circle cx="1100.1" cy="1057.7" r="3.4" fill="#0886C8"/>
<circle cx="1129" cy="1057.7" r="3.4" fill="#0886C8"/>
<circle cx="1157.9" cy="1057.7" r="3.4" fill="#0886C8"/>
<path d="M84.3408 761.697L201.207 694L318 761.571L317.928 896.838L200.793 965L84 897.429L84.3408 761.697Z" fill="#0886C8" fill-opacity="0.04"/>
<path d="M-176.129 -75.9296L122.528 -249L421 -76.2515L420.815 269.568L121.472 443.828L-177 271.08L-176.129 -75.9296Z" fill="#0886C8" fill-opacity="0.04"/>
<path d="M-87.3658 -24.6035L122.371 -146.43L331.977 -24.83L331.847 218.596L121.629 341.26L-87.9774 219.66L-87.3658 -24.6035Z" fill="#0886C8" fill-opacity="0.04"/>
<path d="M-6.32084 22.8473L122.227 -51.602L250.696 22.7088L250.616 171.469L121.773 246.43L-6.69568 172.12L-6.32084 22.8473Z" fill="#0886C8" fill-opacity="0.04"/>
<g clip-path="url(#clip1_904_1214)">
<circle cx="3.4" cy="3.4" r="3.4" transform="matrix(-1.19249e-08 -1 -1 1.19249e-08 665 121)" fill="#0886C8"/>
<circle cx="3.4" cy="3.4" r="3.4" transform="matrix(-1.19249e-08 -1 -1 1.19249e-08 665 92.1)" fill="#0886C8"/>
<circle cx="3.4" cy="3.4" r="3.4" transform="matrix(-1.19249e-08 -1 -1 1.19249e-08 665 63.2)" fill="#0886C8"/>
<circle cx="3.4" cy="3.4" r="3.4" transform="matrix(-1.19249e-08 -1 -1 1.19249e-08 665 34.3)" fill="#0886C8"/>
<circle cx="3.4" cy="3.4" r="3.4" transform="matrix(-1.19249e-08 -1 -1 1.19249e-08 665 5.39999)" fill="#0886C8"/>
<circle cx="3.4" cy="3.4" r="3.4" transform="matrix(-1.19249e-08 -1 -1 1.19249e-08 636.1 121)" fill="#0886C8"/>
<circle cx="3.4" cy="3.4" r="3.4" transform="matrix(-1.19249e-08 -1 -1 1.19249e-08 636.1 92.1)" fill="#0886C8"/>
<circle cx="3.4" cy="3.4" r="3.4" transform="matrix(-1.19249e-08 -1 -1 1.19249e-08 636.1 63.2)" fill="#0886C8"/>
<circle cx="3.4" cy="3.4" r="3.4" transform="matrix(-1.19249e-08 -1 -1 1.19249e-08 636.1 34.3)" fill="#0886C8"/>
<circle cx="3.4" cy="3.4" r="3.4" transform="matrix(-1.19249e-08 -1 -1 1.19249e-08 636.1 5.39999)" fill="#0886C8"/>
<circle cx="3.4" cy="3.4" r="3.4" transform="matrix(-1.19249e-08 -1 -1 1.19249e-08 607.2 121)" fill="#0886C8"/>
<circle cx="3.4" cy="3.4" r="3.4" transform="matrix(-1.19249e-08 -1 -1 1.19249e-08 607.2 92.1)" fill="#0886C8"/>
<circle cx="3.4" cy="3.4" r="3.4" transform="matrix(-1.19249e-08 -1 -1 1.19249e-08 607.2 63.2)" fill="#0886C8"/>
<circle cx="3.4" cy="3.4" r="3.4" transform="matrix(-1.19249e-08 -1 -1 1.19249e-08 607.2 34.3)" fill="#0886C8"/>
<circle cx="3.4" cy="3.4" r="3.4" transform="matrix(-1.19249e-08 -1 -1 1.19249e-08 607.2 5.39999)" fill="#0886C8"/>
<circle cx="3.4" cy="3.4" r="3.4" transform="matrix(-1.19249e-08 -1 -1 1.19249e-08 578.3 121)" fill="#0886C8"/>
<circle cx="3.4" cy="3.4" r="3.4" transform="matrix(-1.19249e-08 -1 -1 1.19249e-08 578.3 92.1)" fill="#0886C8"/>
<circle cx="3.4" cy="3.4" r="3.4" transform="matrix(-1.19249e-08 -1 -1 1.19249e-08 578.3 63.2)" fill="#0886C8"/>
<circle cx="3.4" cy="3.4" r="3.4" transform="matrix(-1.19249e-08 -1 -1 1.19249e-08 578.3 34.3)" fill="#0886C8"/>
<circle cx="3.4" cy="3.4" r="3.4" transform="matrix(-1.19249e-08 -1 -1 1.19249e-08 578.3 5.39999)" fill="#0886C8"/>
<circle cx="3.4" cy="3.4" r="3.4" transform="matrix(-1.19249e-08 -1 -1 1.19249e-08 549.4 121)" fill="#0886C8"/>
<circle cx="3.4" cy="3.4" r="3.4" transform="matrix(-1.19249e-08 -1 -1 1.19249e-08 549.4 92.1)" fill="#0886C8"/>
<circle cx="3.4" cy="3.4" r="3.4" transform="matrix(-1.19249e-08 -1 -1 1.19249e-08 549.4 63.2)" fill="#0886C8"/>
<circle cx="3.4" cy="3.4" r="3.4" transform="matrix(-1.19249e-08 -1 -1 1.19249e-08 549.4 34.3)" fill="#0886C8"/>
<circle cx="3.4" cy="3.4" r="3.4" transform="matrix(-1.19249e-08 -1 -1 1.19249e-08 549.4 5.4)" fill="#0886C8"/>
<circle cx="3.4" cy="3.4" r="3.4" transform="matrix(-1.19249e-08 -1 -1 1.19249e-08 520.5 121)" fill="#0886C8"/>
<circle cx="3.4" cy="3.4" r="3.4" transform="matrix(-1.19249e-08 -1 -1 1.19249e-08 520.5 92.1)" fill="#0886C8"/>
<circle cx="3.4" cy="3.4" r="3.4" transform="matrix(-1.19249e-08 -1 -1 1.19249e-08 520.5 63.2)" fill="#0886C8"/>
<circle cx="3.4" cy="3.4" r="3.4" transform="matrix(-1.19249e-08 -1 -1 1.19249e-08 520.5 34.3)" fill="#0886C8"/>
<circle cx="3.4" cy="3.4" r="3.4" transform="matrix(-1.19249e-08 -1 -1 1.19249e-08 520.5 5.4)" fill="#0886C8"/>
<circle cx="3.4" cy="3.4" r="3.4" transform="matrix(-1.19249e-08 -1 -1 1.19249e-08 491.6 121)" fill="#0886C8"/>
<circle cx="3.4" cy="3.4" r="3.4" transform="matrix(-1.19249e-08 -1 -1 1.19249e-08 491.6 92.1)" fill="#0886C8"/>
<circle cx="3.4" cy="3.4" r="3.4" transform="matrix(-1.19249e-08 -1 -1 1.19249e-08 491.6 63.2)" fill="#0886C8"/>
<circle cx="3.4" cy="3.4" r="3.4" transform="matrix(-1.19249e-08 -1 -1 1.19249e-08 491.6 34.3)" fill="#0886C8"/>
<circle cx="3.4" cy="3.4" r="3.4" transform="matrix(-1.19249e-08 -1 -1 1.19249e-08 491.6 5.4)" fill="#0886C8"/>
<circle cx="3.4" cy="3.4" r="3.4" transform="matrix(-1.19249e-08 -1 -1 1.19249e-08 462.7 121)" fill="#0886C8"/>
<circle cx="3.4" cy="3.4" r="3.4" transform="matrix(-1.19249e-08 -1 -1 1.19249e-08 462.7 92.1)" fill="#0886C8"/>
<circle cx="3.4" cy="3.4" r="3.4" transform="matrix(-1.19249e-08 -1 -1 1.19249e-08 462.7 63.2)" fill="#0886C8"/>
<circle cx="3.4" cy="3.4" r="3.4" transform="matrix(-1.19249e-08 -1 -1 1.19249e-08 462.7 34.3)" fill="#0886C8"/>
<circle cx="3.4" cy="3.4" r="3.4" transform="matrix(-1.19249e-08 -1 -1 1.19249e-08 462.7 5.4)" fill="#0886C8"/>
<circle cx="3.4" cy="3.4" r="3.4" transform="matrix(-1.19249e-08 -1 -1 1.19249e-08 433.8 121)" fill="#0886C8"/>
<circle cx="3.4" cy="3.4" r="3.4" transform="matrix(-1.19249e-08 -1 -1 1.19249e-08 433.8 92.1)" fill="#0886C8"/>
<circle cx="3.4" cy="3.4" r="3.4" transform="matrix(-1.19249e-08 -1 -1 1.19249e-08 433.8 63.2)" fill="#0886C8"/>
<circle cx="3.4" cy="3.4" r="3.4" transform="matrix(-1.19249e-08 -1 -1 1.19249e-08 433.8 34.3)" fill="#0886C8"/>
<circle cx="3.4" cy="3.4" r="3.4" transform="matrix(-1.19249e-08 -1 -1 1.19249e-08 433.8 5.4)" fill="#0886C8"/>
<circle cx="3.4" cy="3.4" r="3.4" transform="matrix(-1.19249e-08 -1 -1 1.19249e-08 404.9 121)" fill="#0886C8"/>
<circle cx="3.4" cy="3.4" r="3.4" transform="matrix(-1.19249e-08 -1 -1 1.19249e-08 404.9 92.1)" fill="#0886C8"/>
<circle cx="3.4" cy="3.4" r="3.4" transform="matrix(-1.19249e-08 -1 -1 1.19249e-08 404.9 63.2)" fill="#0886C8"/>
<circle cx="3.4" cy="3.4" r="3.4" transform="matrix(-1.19249e-08 -1 -1 1.19249e-08 404.9 34.3)" fill="#0886C8"/>
<circle cx="3.4" cy="3.4" r="3.4" transform="matrix(-1.19249e-08 -1 -1 1.19249e-08 404.9 5.4)" fill="#0886C8"/>
<circle cx="3.4" cy="3.4" r="3.4" transform="matrix(-1.19249e-08 -1 -1 1.19249e-08 376 121)" fill="#0886C8"/>
<circle cx="3.4" cy="3.4" r="3.4" transform="matrix(-1.19249e-08 -1 -1 1.19249e-08 376 92.1)" fill="#0886C8"/>
<circle cx="3.4" cy="3.4" r="3.4" transform="matrix(-1.19249e-08 -1 -1 1.19249e-08 376 63.2)" fill="#0886C8"/>
<circle cx="3.4" cy="3.4" r="3.4" transform="matrix(-1.19249e-08 -1 -1 1.19249e-08 376 34.3)" fill="#0886C8"/>
<circle cx="3.4" cy="3.4" r="3.4" transform="matrix(-1.19249e-08 -1 -1 1.19249e-08 376 5.4)" fill="#0886C8"/>
<circle cx="3.4" cy="3.4" r="3.4" transform="matrix(-1.19249e-08 -1 -1 1.19249e-08 347.1 121)" fill="#0886C8"/>
<circle cx="3.4" cy="3.4" r="3.4" transform="matrix(-1.19249e-08 -1 -1 1.19249e-08 347.1 92.1)" fill="#0886C8"/>
<circle cx="3.4" cy="3.4" r="3.4" transform="matrix(-1.19249e-08 -1 -1 1.19249e-08 347.1 63.2)" fill="#0886C8"/>
<circle cx="3.4" cy="3.4" r="3.4" transform="matrix(-1.19249e-08 -1 -1 1.19249e-08 347.1 34.3)" fill="#0886C8"/>
<circle cx="3.4" cy="3.4" r="3.4" transform="matrix(-1.19249e-08 -1 -1 1.19249e-08 347.1 5.4)" fill="#0886C8"/>
<circle cx="3.4" cy="3.4" r="3.4" transform="matrix(-1.19249e-08 -1 -1 1.19249e-08 318.2 121)" fill="#0886C8"/>
<circle cx="3.4" cy="3.4" r="3.4" transform="matrix(-1.19249e-08 -1 -1 1.19249e-08 318.2 92.1)" fill="#0886C8"/>
<circle cx="3.4" cy="3.4" r="3.4" transform="matrix(-1.19249e-08 -1 -1 1.19249e-08 318.2 63.2)" fill="#0886C8"/>
<circle cx="3.4" cy="3.4" r="3.4" transform="matrix(-1.19249e-08 -1 -1 1.19249e-08 318.2 34.3)" fill="#0886C8"/>
<circle cx="3.4" cy="3.4" r="3.4" transform="matrix(-1.19249e-08 -1 -1 1.19249e-08 318.2 5.4)" fill="#0886C8"/>
</g>
<path d="M984.425 -74.6496L1130.04 -159L1275.57 -74.8065L1275.48 93.7376L1129.53 178.668L984 94.4746L984.425 -74.6496Z" fill="#0886C8" fill-opacity="0.04"/>
<path d="M1047.45 -38.365L1130.69 -86.4879L1213.88 -38.4545L1213.82 57.7021L1130.39 106.156L1047.21 58.1226L1047.45 -38.365Z" fill="#0886C8" fill-opacity="0.04"/>
<path d="M1436.15 633.477L1487.09 604L1538 633.422L1537.97 692.321L1486.91 722L1436 692.578L1436.15 633.477Z" fill="#0886C8" fill-opacity="0.04"/>
<rect x="53" y="49" width="97" height="97" rx="48.5" fill="#0886C8"/>
<path d="M102.416 120.572C97.936 120.572 94.0664 119.641 90.8079 117.779C87.5687 115.897 85.0763 113.24 83.3306 109.807C81.585 106.354 80.7122 102.291 80.7122 97.6164C80.7122 93.0195 81.585 88.9851 83.3306 85.5132C85.0957 82.0219 87.559 79.3064 90.7206 77.3668C93.8822 75.4078 97.5965 74.4283 101.864 74.4283C104.618 74.4283 107.217 74.8744 109.661 75.7666C112.124 76.6394 114.297 77.9972 116.178 79.8398C118.079 81.6824 119.572 84.0294 120.659 86.8806C121.745 89.7124 122.288 93.0874 122.288 97.0054V100.235H85.6582V93.1359H112.192C112.173 91.1187 111.736 89.3245 110.883 87.7534C110.029 86.1629 108.837 84.9119 107.304 84.0003C105.791 83.0886 104.026 82.6328 102.009 82.6328C99.8562 82.6328 97.965 83.1565 96.3358 84.2039C94.7065 85.2319 93.436 86.5897 92.5244 88.2771C91.6322 89.9452 91.1764 91.7781 91.157 93.7759V99.973C91.157 102.572 91.6322 104.803 92.5826 106.665C93.533 108.507 94.8617 109.923 96.5685 110.912C98.2754 111.882 100.273 112.367 102.562 112.367C104.094 112.367 105.481 112.154 106.722 111.727C107.964 111.281 109.04 110.631 109.952 109.778C110.863 108.924 111.552 107.867 112.018 106.606L121.851 107.712C121.231 110.311 120.048 112.581 118.302 114.52C116.576 116.44 114.365 117.934 111.668 119.001C108.972 120.048 105.888 120.572 102.416 120.572Z" fill="white"/>
</g>
<defs>
<clipPath id="clip0_904_1214">
<rect width="1920" height="1080" fill="white"/>
</clipPath>
<clipPath id="clip1_904_1214">
<rect width="163" height="362" fill="white" transform="matrix(-1.19249e-08 -1 -1 1.19249e-08 665 121)"/>
</clipPath>
</defs>
</svg>
