<svg width="96" height="96" viewBox="0 0 96 96" fill="none" xmlns="http://www.w3.org/2000/svg">
<rect width="96" height="96" rx="48" fill="#0886C8"/>
<path d="M48.9072 70.8339C44.4729 70.8339 40.6432 69.9125 37.4183 68.0696C34.2125 66.2076 31.7458 63.5777 30.0181 60.18C28.2905 56.7631 27.4266 52.7415 27.4266 48.1152C27.4266 43.5657 28.2905 39.5729 30.0181 36.1368C31.765 32.6815 34.2029 29.994 37.3319 28.0744C40.4609 26.1355 44.1369 25.1661 48.3601 25.1661C51.086 25.1661 53.6582 25.6077 56.077 26.4907C58.5149 27.3545 60.6649 28.6982 62.5269 30.5219C64.4081 32.3455 65.8862 34.6683 66.9612 37.4901C68.0362 40.2927 68.5737 43.6329 68.5737 47.5105V50.7067H32.3217V43.6809H58.5821C58.5629 41.6845 58.131 39.9088 57.2863 38.3539C56.4417 36.7798 55.2611 35.5417 53.7446 34.6395C52.2473 33.7372 50.5005 33.2861 48.5041 33.2861C46.3733 33.2861 44.5017 33.8044 42.8892 34.841C41.2767 35.8584 40.0193 37.2022 39.1171 38.8722C38.2341 40.5231 37.783 42.3371 37.7638 44.3144V50.4475C37.7638 53.0198 38.2341 55.2274 39.1747 57.0702C40.1153 58.8939 41.4303 60.2952 43.1195 61.2742C44.8088 62.234 46.786 62.7139 49.0512 62.7139C50.5677 62.7139 51.9402 62.5027 53.1687 62.0804C54.3973 61.6389 55.4627 60.9958 56.3649 60.1512C57.2671 59.3066 57.9486 58.2604 58.4093 57.0126L68.1418 58.1068C67.5275 60.6791 66.3565 62.9251 64.6289 64.8447C62.9204 66.7451 60.732 68.2232 58.0638 69.279C55.3955 70.3156 52.3433 70.8339 48.9072 70.8339Z" fill="white"/>
</svg>
