<svg width="595" height="842" viewBox="0 0 595 842" fill="none" xmlns="http://www.w3.org/2000/svg">
<g clip-path="url(#clip0_99_255)">
<rect width="595" height="842" fill="#F5FAFD"/>
<path d="M-49.7335 2.96301L41.6615 -50L133 2.86453L132.943 108.692L41.3384 162.019L-50 109.155L-49.7335 2.96301Z" fill="#0886C8" fill-opacity="0.04"/>
<path d="M-22.5701 18.6696L41.6134 -18.6116L105.757 18.6003L105.717 93.0935L41.3865 130.631L-22.7573 93.4192L-22.5701 18.6696Z" fill="#0886C8" fill-opacity="0.04"/>
<path d="M2.23124 33.1908L41.5696 10.4079L80.8835 33.1485L80.8591 78.6721L41.4305 101.612L2.11653 78.8712L2.23124 33.1908Z" fill="#0886C8" fill-opacity="0.04"/>
<path d="M454.267 745.963L545.662 693L637 745.865L636.943 851.692L545.338 905.019L454 852.155L454.267 745.963Z" fill="#0886C8" fill-opacity="0.04"/>
<path d="M481.43 761.67L545.613 724.388L609.757 761.6L609.717 836.094L545.387 873.631L481.243 836.419L481.43 761.67Z" fill="#0886C8" fill-opacity="0.04"/>
<path d="M506.231 776.191L545.57 753.408L584.884 776.148L584.859 821.672L545.431 844.612L506.117 821.871L506.231 776.191Z" fill="#0886C8" fill-opacity="0.04"/>
<circle cx="82.5057" cy="4.10114" r="1.50562" fill="#0886C8"/>
<circle cx="95.3035" cy="4.10114" r="1.50562" fill="#0886C8"/>
<circle cx="108.101" cy="4.10114" r="1.50562" fill="#0886C8"/>
<circle cx="120.899" cy="4.10114" r="1.50562" fill="#0886C8"/>
<circle cx="133.697" cy="4.10114" r="1.50562" fill="#0886C8"/>
<circle cx="146.494" cy="4.10114" r="1.50562" fill="#0886C8"/>
<circle cx="159.292" cy="4.10114" r="1.50562" fill="#0886C8"/>
<circle cx="82.5057" cy="16.8989" r="1.50562" fill="#0886C8"/>
<circle cx="95.3035" cy="16.8989" r="1.50562" fill="#0886C8"/>
<circle cx="108.101" cy="16.8989" r="1.50562" fill="#0886C8"/>
<circle cx="120.899" cy="16.8989" r="1.50562" fill="#0886C8"/>
<circle cx="133.697" cy="16.8989" r="1.50562" fill="#0886C8"/>
<circle cx="146.494" cy="16.8989" r="1.50562" fill="#0886C8"/>
<circle cx="159.292" cy="16.8989" r="1.50562" fill="#0886C8"/>
<circle cx="82.5057" cy="29.6966" r="1.50562" fill="#0886C8"/>
<circle cx="95.3035" cy="29.6966" r="1.50562" fill="#0886C8"/>
<circle cx="108.101" cy="29.6966" r="1.50562" fill="#0886C8"/>
<circle cx="120.899" cy="29.6966" r="1.50562" fill="#0886C8"/>
<circle cx="133.697" cy="29.6966" r="1.50562" fill="#0886C8"/>
<circle cx="146.494" cy="29.6966" r="1.50562" fill="#0886C8"/>
<circle cx="159.292" cy="29.6966" r="1.50562" fill="#0886C8"/>
<circle cx="82.5057" cy="42.4944" r="1.50562" fill="#0886C8"/>
<circle cx="95.3035" cy="42.4944" r="1.50562" fill="#0886C8"/>
<circle cx="108.101" cy="42.4944" r="1.50562" fill="#0886C8"/>
<circle cx="120.899" cy="42.4944" r="1.50562" fill="#0886C8"/>
<circle cx="133.697" cy="42.4944" r="1.50562" fill="#0886C8"/>
<circle cx="146.494" cy="42.4944" r="1.50562" fill="#0886C8"/>
<circle cx="159.292" cy="42.4944" r="1.50562" fill="#0886C8"/>
<circle cx="441.506" cy="800.506" r="1.50562" fill="#0886C8"/>
<circle cx="454.303" cy="800.506" r="1.50562" fill="#0886C8"/>
<circle cx="467.101" cy="800.506" r="1.50562" fill="#0886C8"/>
<circle cx="479.899" cy="800.506" r="1.50562" fill="#0886C8"/>
<circle cx="492.697" cy="800.506" r="1.50562" fill="#0886C8"/>
<circle cx="505.494" cy="800.506" r="1.50562" fill="#0886C8"/>
<circle cx="518.292" cy="800.506" r="1.50562" fill="#0886C8"/>
<circle cx="441.506" cy="813.303" r="1.50562" fill="#0886C8"/>
<circle cx="454.303" cy="813.303" r="1.50562" fill="#0886C8"/>
<circle cx="467.101" cy="813.303" r="1.50562" fill="#0886C8"/>
<circle cx="479.899" cy="813.303" r="1.50562" fill="#0886C8"/>
<circle cx="492.697" cy="813.303" r="1.50562" fill="#0886C8"/>
<circle cx="505.494" cy="813.303" r="1.50562" fill="#0886C8"/>
<circle cx="518.292" cy="813.303" r="1.50562" fill="#0886C8"/>
<circle cx="441.506" cy="826.101" r="1.50562" fill="#0886C8"/>
<circle cx="454.303" cy="826.101" r="1.50562" fill="#0886C8"/>
<circle cx="467.101" cy="826.101" r="1.50562" fill="#0886C8"/>
<circle cx="479.899" cy="826.101" r="1.50562" fill="#0886C8"/>
<circle cx="492.697" cy="826.101" r="1.50562" fill="#0886C8"/>
<circle cx="505.494" cy="826.101" r="1.50562" fill="#0886C8"/>
<circle cx="518.292" cy="826.101" r="1.50562" fill="#0886C8"/>
<circle cx="441.506" cy="838.899" r="1.50562" fill="#0886C8"/>
<circle cx="454.303" cy="838.899" r="1.50562" fill="#0886C8"/>
<circle cx="467.101" cy="838.899" r="1.50562" fill="#0886C8"/>
<circle cx="479.899" cy="838.899" r="1.50562" fill="#0886C8"/>
<circle cx="492.697" cy="838.899" r="1.50562" fill="#0886C8"/>
<circle cx="505.494" cy="838.899" r="1.50562" fill="#0886C8"/>
<circle cx="518.292" cy="838.899" r="1.50562" fill="#0886C8"/>
<path d="M546.115 568.783L585.453 546L624.767 568.741L624.743 614.264L585.314 637.204L546 614.463L546.115 568.783Z" fill="#0886C8" fill-opacity="0.04"/>
<path d="M-36.8853 236.783L2.45303 214L41.767 236.741L41.7426 282.264L2.31395 305.204L-37 282.463L-36.8853 236.783Z" fill="#0886C8" fill-opacity="0.04"/>
</g>
<defs>
<clipPath id="clip0_99_255">
<rect width="595" height="842" fill="white"/>
</clipPath>
</defs>
</svg>
