<svg width="1275" height="719" viewBox="0 0 1275 719" fill="none" xmlns="http://www.w3.org/2000/svg">
<g clip-path="url(#clip0_202_1543)">
<rect width="1275" height="719" fill="#F5FAFD"/>
<path d="M1143.25 99.8307L1227.51 50.9999L1311.72 99.7399L1311.67 197.311L1227.21 246.478L1143 197.738L1143.25 99.8307Z" fill="#0886C8" fill-opacity="0.04"/>
<path d="M1179.86 121.136L1227.45 93.5778L1275 121.085L1274.97 176.151L1227.28 203.9L1179.72 176.392L1179.86 121.136Z" fill="#0886C8" fill-opacity="0.04"/>
<path d="M-87.6742 632.749L24.0586 568L135.722 632.628L135.653 762.005L23.6636 827.199L-88 762.571L-87.6742 632.749Z" fill="#0886C8" fill-opacity="0.04"/>
<path d="M-54.4663 651.95L23.9998 606.373L102.417 651.866L102.369 742.936L23.7224 788.826L-54.6951 743.334L-54.4663 651.95Z" fill="#0886C8" fill-opacity="0.04"/>
<path d="M-24.146 669.703L23.9462 641.85L72.0085 669.651L71.9787 725.305L23.7761 753.349L-24.2862 725.548L-24.146 669.703Z" fill="#0886C8" fill-opacity="0.04"/>
<circle cx="74.2909" cy="9.709" r="2.29091" fill="#0886C8"/>
<circle cx="93.7636" cy="9.70912" r="2.29091" fill="#0886C8"/>
<circle cx="113.236" cy="9.70912" r="2.29091" fill="#0886C8"/>
<circle cx="132.709" cy="9.70912" r="2.29091" fill="#0886C8"/>
<circle cx="152.182" cy="9.70912" r="2.29091" fill="#0886C8"/>
<circle cx="171.655" cy="9.70912" r="2.29091" fill="#0886C8"/>
<circle cx="191.127" cy="9.70912" r="2.29091" fill="#0886C8"/>
<circle cx="74.2909" cy="29.1818" r="2.29091" fill="#0886C8"/>
<circle cx="93.7636" cy="29.1818" r="2.29091" fill="#0886C8"/>
<circle cx="113.236" cy="29.1818" r="2.29091" fill="#0886C8"/>
<circle cx="132.709" cy="29.1818" r="2.29091" fill="#0886C8"/>
<circle cx="152.182" cy="29.1818" r="2.29091" fill="#0886C8"/>
<circle cx="171.655" cy="29.1818" r="2.29091" fill="#0886C8"/>
<circle cx="191.127" cy="29.1818" r="2.29091" fill="#0886C8"/>
<circle cx="74.2909" cy="48.6544" r="2.29091" fill="#0886C8"/>
<circle cx="93.7636" cy="48.6546" r="2.29091" fill="#0886C8"/>
<circle cx="113.236" cy="48.6546" r="2.29091" fill="#0886C8"/>
<circle cx="132.709" cy="48.6546" r="2.29091" fill="#0886C8"/>
<circle cx="152.182" cy="48.6546" r="2.29091" fill="#0886C8"/>
<circle cx="171.655" cy="48.6546" r="2.29091" fill="#0886C8"/>
<circle cx="191.127" cy="48.6546" r="2.29091" fill="#0886C8"/>
<path d="M-91.732 21.2211L0.162407 -32L92 21.1221L91.943 127.465L-0.162468 181.053L-92 127.93L-91.732 21.2211Z" fill="#0886C8" fill-opacity="0.04"/>
<path d="M-48.9695 46.1432L0.0869331 17.8047L49.113 46.0905L49.0826 102.715L-0.0864944 131.248L-49.1125 102.962L-48.9695 46.1432Z" fill="#0886C8" fill-opacity="0.04"/>
<path d="M1095.14 613.853L1143.23 586L1191.29 613.801L1191.26 669.455L1143.06 697.499L1095 669.698L1095.14 613.853Z" fill="#0886C8" fill-opacity="0.04"/>
<path d="M1117.52 626.895L1143.19 612.065L1168.85 626.868L1168.83 656.502L1143.1 671.434L1117.44 656.631L1117.52 626.895Z" fill="#0886C8" fill-opacity="0.04"/>
</g>
<defs>
<clipPath id="clip0_202_1543">
<rect width="1275" height="719" fill="white"/>
</clipPath>
</defs>
</svg>
