<svg width="1600" height="400" viewBox="0 0 1600 400" fill="none" xmlns="http://www.w3.org/2000/svg">
<g clip-path="url(#clip0_60_12)">
<rect width="1600" height="400" fill="#F5FAFD"/>
<path d="M1312.64 234.947L1533.43 107L1754.09 234.709L1753.95 490.365L1532.65 619.192L1312 491.483L1312.64 234.947Z" fill="#0886C8" fill-opacity="0.04"/>
<path d="M1378.26 272.891L1533.32 182.827L1688.27 272.723L1688.18 452.682L1532.77 543.365L1377.81 453.469L1378.26 272.891Z" fill="#0886C8" fill-opacity="0.04"/>
<path d="M1438.18 307.97L1533.21 252.931L1628.19 307.867L1628.13 417.842L1532.88 473.259L1437.9 418.323L1438.18 307.97Z" fill="#0886C8" fill-opacity="0.04"/>
<circle cx="1337.42" cy="153.876" r="2.92431" transform="rotate(-90 1337.42 153.876)" fill="#0886C8"/>
<circle cx="1337.42" cy="129.02" r="2.92431" transform="rotate(-90 1337.42 129.02)" fill="#0886C8"/>
<circle cx="1337.42" cy="104.163" r="2.92431" transform="rotate(-90 1337.42 104.163)" fill="#0886C8"/>
<circle cx="1337.42" cy="79.3062" r="2.92431" transform="rotate(-90 1337.42 79.3062)" fill="#0886C8"/>
<circle cx="1337.42" cy="54.4495" r="2.92431" transform="rotate(-90 1337.42 54.4495)" fill="#0886C8"/>
<circle cx="1362.28" cy="153.876" r="2.92431" transform="rotate(-90 1362.28 153.876)" fill="#0886C8"/>
<circle cx="1362.28" cy="129.02" r="2.92431" transform="rotate(-90 1362.28 129.02)" fill="#0886C8"/>
<circle cx="1362.28" cy="104.163" r="2.92431" transform="rotate(-90 1362.28 104.163)" fill="#0886C8"/>
<circle cx="1362.28" cy="79.3062" r="2.92431" transform="rotate(-90 1362.28 79.3062)" fill="#0886C8"/>
<circle cx="1362.28" cy="54.4495" r="2.92431" transform="rotate(-90 1362.28 54.4495)" fill="#0886C8"/>
<circle cx="1387.14" cy="153.876" r="2.92431" transform="rotate(-90 1387.14 153.876)" fill="#0886C8"/>
<circle cx="1387.14" cy="129.02" r="2.92431" transform="rotate(-90 1387.14 129.02)" fill="#0886C8"/>
<circle cx="1387.14" cy="104.163" r="2.92431" transform="rotate(-90 1387.14 104.163)" fill="#0886C8"/>
<circle cx="1387.14" cy="79.3062" r="2.92431" transform="rotate(-90 1387.14 79.3062)" fill="#0886C8"/>
<circle cx="1387.14" cy="54.4495" r="2.92431" transform="rotate(-90 1387.14 54.4495)" fill="#0886C8"/>
<circle cx="1411.99" cy="153.876" r="2.92431" transform="rotate(-90 1411.99 153.876)" fill="#0886C8"/>
<circle cx="1411.99" cy="129.02" r="2.92431" transform="rotate(-90 1411.99 129.02)" fill="#0886C8"/>
<circle cx="1411.99" cy="104.163" r="2.92431" transform="rotate(-90 1411.99 104.163)" fill="#0886C8"/>
<circle cx="1411.99" cy="79.3062" r="2.92431" transform="rotate(-90 1411.99 79.3062)" fill="#0886C8"/>
<circle cx="1411.99" cy="54.4495" r="2.92431" transform="rotate(-90 1411.99 54.4495)" fill="#0886C8"/>
<circle cx="1436.85" cy="153.876" r="2.92431" transform="rotate(-90 1436.85 153.876)" fill="#0886C8"/>
<circle cx="1436.85" cy="129.02" r="2.92431" transform="rotate(-90 1436.85 129.02)" fill="#0886C8"/>
<circle cx="1436.85" cy="104.163" r="2.92431" transform="rotate(-90 1436.85 104.163)" fill="#0886C8"/>
<circle cx="1436.85" cy="79.3062" r="2.92431" transform="rotate(-90 1436.85 79.3062)" fill="#0886C8"/>
<circle cx="1436.85" cy="54.4495" r="2.92431" transform="rotate(-90 1436.85 54.4495)" fill="#0886C8"/>
<circle cx="1461.71" cy="153.876" r="2.92431" transform="rotate(-90 1461.71 153.876)" fill="#0886C8"/>
<circle cx="1461.71" cy="129.02" r="2.92431" transform="rotate(-90 1461.71 129.02)" fill="#0886C8"/>
<circle cx="1461.71" cy="104.163" r="2.92431" transform="rotate(-90 1461.71 104.163)" fill="#0886C8"/>
<circle cx="1461.71" cy="79.3062" r="2.92431" transform="rotate(-90 1461.71 79.3062)" fill="#0886C8"/>
<circle cx="1461.71" cy="54.4495" r="2.92431" transform="rotate(-90 1461.71 54.4495)" fill="#0886C8"/>
<circle cx="1486.56" cy="153.876" r="2.92431" transform="rotate(-90 1486.56 153.876)" fill="#0886C8"/>
<circle cx="1486.56" cy="129.02" r="2.92431" transform="rotate(-90 1486.56 129.02)" fill="#0886C8"/>
<circle cx="1486.56" cy="104.163" r="2.92431" transform="rotate(-90 1486.56 104.163)" fill="#0886C8"/>
<circle cx="1486.56" cy="79.3062" r="2.92431" transform="rotate(-90 1486.56 79.3062)" fill="#0886C8"/>
<circle cx="1486.56" cy="54.4495" r="2.92431" transform="rotate(-90 1486.56 54.4495)" fill="#0886C8"/>
<circle cx="1511.42" cy="153.876" r="2.92431" transform="rotate(-90 1511.42 153.876)" fill="#0886C8"/>
<circle cx="1511.42" cy="129.02" r="2.92431" transform="rotate(-90 1511.42 129.02)" fill="#0886C8"/>
<circle cx="1511.42" cy="104.163" r="2.92431" transform="rotate(-90 1511.42 104.163)" fill="#0886C8"/>
<circle cx="1511.42" cy="79.3062" r="2.92431" transform="rotate(-90 1511.42 79.3062)" fill="#0886C8"/>
<circle cx="1511.42" cy="54.4495" r="2.92431" transform="rotate(-90 1511.42 54.4495)" fill="#0886C8"/>
<circle cx="1536.28" cy="153.876" r="2.92431" transform="rotate(-90 1536.28 153.876)" fill="#0886C8"/>
<circle cx="1536.28" cy="129.02" r="2.92431" transform="rotate(-90 1536.28 129.02)" fill="#0886C8"/>
<circle cx="1536.28" cy="104.163" r="2.92431" transform="rotate(-90 1536.28 104.163)" fill="#0886C8"/>
<circle cx="1536.28" cy="79.3062" r="2.92431" transform="rotate(-90 1536.28 79.3062)" fill="#0886C8"/>
<circle cx="1536.28" cy="54.4495" r="2.92431" transform="rotate(-90 1536.28 54.4495)" fill="#0886C8"/>
<circle cx="1561.13" cy="153.876" r="2.92431" transform="rotate(-90 1561.13 153.876)" fill="#0886C8"/>
<circle cx="1561.13" cy="129.02" r="2.92431" transform="rotate(-90 1561.13 129.02)" fill="#0886C8"/>
<circle cx="1561.13" cy="104.163" r="2.92431" transform="rotate(-90 1561.13 104.163)" fill="#0886C8"/>
<circle cx="1561.13" cy="79.3062" r="2.92431" transform="rotate(-90 1561.13 79.3062)" fill="#0886C8"/>
<circle cx="1561.13" cy="54.4495" r="2.92431" transform="rotate(-90 1561.13 54.4495)" fill="#0886C8"/>
<circle cx="1585.99" cy="153.876" r="2.92431" transform="rotate(-90 1585.99 153.876)" fill="#0886C8"/>
<circle cx="1585.99" cy="129.02" r="2.92431" transform="rotate(-90 1585.99 129.02)" fill="#0886C8"/>
<circle cx="1585.99" cy="104.163" r="2.92431" transform="rotate(-90 1585.99 104.163)" fill="#0886C8"/>
<circle cx="1585.99" cy="79.3062" r="2.92431" transform="rotate(-90 1585.99 79.3062)" fill="#0886C8"/>
<circle cx="1585.99" cy="54.4495" r="2.92431" transform="rotate(-90 1585.99 54.4495)" fill="#0886C8"/>
<path d="M1123.25 -12.9392L1209.59 -63L1295.88 -13.0323L1295.82 86.9963L1209.29 137.401L1123 87.4337L1123.25 -12.9392Z" fill="#0886C8" fill-opacity="0.04"/>
<path d="M246.736 356.171L333.076 306.11L419.362 356.078L419.309 456.106L332.77 506.511L246.484 456.544L246.736 356.171Z" fill="#0886C8" fill-opacity="0.04"/>
<path d="M-209.356 -92.0532L11.4338 -220L232.087 -92.2911L231.95 163.365L10.6532 292.192L-210 164.483L-209.356 -92.0532Z" fill="#0886C8" fill-opacity="0.04"/>
<path d="M-143.736 -54.1091L11.3176 -144.172L166.275 -54.2766L166.179 125.682L10.7694 216.365L-144.188 126.469L-143.736 -54.1091Z" fill="#0886C8" fill-opacity="0.04"/>
<path d="M-83.821 -19.0298L11.2116 -74.0684L106.185 -19.1322L106.126 90.8427L10.8756 146.26L-84.0981 91.3236L-83.821 -19.0298Z" fill="#0886C8" fill-opacity="0.04"/>
<circle cx="2.92431" cy="2.92431" r="2.92431" transform="matrix(-1.19249e-08 -1 -1 1.19249e-08 209.5 355.273)" fill="#0886C8"/>
<circle cx="2.92431" cy="2.92431" r="2.92431" transform="matrix(-1.19249e-08 -1 -1 1.19249e-08 209.5 330.416)" fill="#0886C8"/>
<circle cx="2.92431" cy="2.92431" r="2.92431" transform="matrix(-1.19249e-08 -1 -1 1.19249e-08 209.5 305.56)" fill="#0886C8"/>
<circle cx="2.92431" cy="2.92431" r="2.92431" transform="matrix(-1.19249e-08 -1 -1 1.19249e-08 209.5 280.703)" fill="#0886C8"/>
<circle cx="2.92431" cy="2.92431" r="2.92431" transform="matrix(-1.19249e-08 -1 -1 1.19249e-08 209.5 255.846)" fill="#0886C8"/>
<circle cx="2.92431" cy="2.92431" r="2.92431" transform="matrix(-1.19249e-08 -1 -1 1.19249e-08 184.643 355.273)" fill="#0886C8"/>
<circle cx="2.92431" cy="2.92431" r="2.92431" transform="matrix(-1.19249e-08 -1 -1 1.19249e-08 184.643 330.416)" fill="#0886C8"/>
<circle cx="2.92431" cy="2.92431" r="2.92431" transform="matrix(-1.19249e-08 -1 -1 1.19249e-08 184.643 305.56)" fill="#0886C8"/>
<circle cx="2.92431" cy="2.92431" r="2.92431" transform="matrix(-1.19249e-08 -1 -1 1.19249e-08 184.643 280.703)" fill="#0886C8"/>
<circle cx="2.92431" cy="2.92431" r="2.92431" transform="matrix(-1.19249e-08 -1 -1 1.19249e-08 184.643 255.846)" fill="#0886C8"/>
<circle cx="2.92431" cy="2.92431" r="2.92431" transform="matrix(-1.19249e-08 -1 -1 1.19249e-08 159.787 355.273)" fill="#0886C8"/>
<circle cx="2.92431" cy="2.92431" r="2.92431" transform="matrix(-1.19249e-08 -1 -1 1.19249e-08 159.787 330.416)" fill="#0886C8"/>
<circle cx="2.92431" cy="2.92431" r="2.92431" transform="matrix(-1.19249e-08 -1 -1 1.19249e-08 159.787 305.56)" fill="#0886C8"/>
<circle cx="2.92431" cy="2.92431" r="2.92431" transform="matrix(-1.19249e-08 -1 -1 1.19249e-08 159.787 280.703)" fill="#0886C8"/>
<circle cx="2.92431" cy="2.92431" r="2.92431" transform="matrix(-1.19249e-08 -1 -1 1.19249e-08 159.787 255.846)" fill="#0886C8"/>
<circle cx="2.92431" cy="2.92431" r="2.92431" transform="matrix(-1.19249e-08 -1 -1 1.19249e-08 134.93 355.273)" fill="#0886C8"/>
<circle cx="2.92431" cy="2.92431" r="2.92431" transform="matrix(-1.19249e-08 -1 -1 1.19249e-08 134.93 330.416)" fill="#0886C8"/>
<circle cx="2.92431" cy="2.92431" r="2.92431" transform="matrix(-1.19249e-08 -1 -1 1.19249e-08 134.93 305.56)" fill="#0886C8"/>
<circle cx="2.92431" cy="2.92431" r="2.92431" transform="matrix(-1.19249e-08 -1 -1 1.19249e-08 134.93 280.703)" fill="#0886C8"/>
<circle cx="2.92431" cy="2.92431" r="2.92431" transform="matrix(-1.19249e-08 -1 -1 1.19249e-08 134.93 255.846)" fill="#0886C8"/>
<circle cx="2.92431" cy="2.92431" r="2.92431" transform="matrix(-1.19249e-08 -1 -1 1.19249e-08 110.073 355.273)" fill="#0886C8"/>
<circle cx="2.92431" cy="2.92431" r="2.92431" transform="matrix(-1.19249e-08 -1 -1 1.19249e-08 110.073 330.416)" fill="#0886C8"/>
<circle cx="2.92431" cy="2.92431" r="2.92431" transform="matrix(-1.19249e-08 -1 -1 1.19249e-08 110.073 305.56)" fill="#0886C8"/>
<circle cx="2.92431" cy="2.92431" r="2.92431" transform="matrix(-1.19249e-08 -1 -1 1.19249e-08 110.073 280.703)" fill="#0886C8"/>
<circle cx="2.92431" cy="2.92431" r="2.92431" transform="matrix(-1.19249e-08 -1 -1 1.19249e-08 110.073 255.846)" fill="#0886C8"/>
<circle cx="2.92431" cy="2.92431" r="2.92431" transform="matrix(-1.19249e-08 -1 -1 1.19249e-08 85.2168 355.273)" fill="#0886C8"/>
<circle cx="2.92431" cy="2.92431" r="2.92431" transform="matrix(-1.19249e-08 -1 -1 1.19249e-08 85.2168 330.416)" fill="#0886C8"/>
<circle cx="2.92431" cy="2.92431" r="2.92431" transform="matrix(-1.19249e-08 -1 -1 1.19249e-08 85.2168 305.56)" fill="#0886C8"/>
<circle cx="2.92431" cy="2.92431" r="2.92431" transform="matrix(-1.19249e-08 -1 -1 1.19249e-08 85.2168 280.703)" fill="#0886C8"/>
<circle cx="2.92431" cy="2.92431" r="2.92431" transform="matrix(-1.19249e-08 -1 -1 1.19249e-08 85.2168 255.846)" fill="#0886C8"/>
<circle cx="2.92431" cy="2.92431" r="2.92431" transform="matrix(-1.19249e-08 -1 -1 1.19249e-08 60.3601 355.273)" fill="#0886C8"/>
<circle cx="2.92431" cy="2.92431" r="2.92431" transform="matrix(-1.19249e-08 -1 -1 1.19249e-08 60.3601 330.416)" fill="#0886C8"/>
<circle cx="2.92431" cy="2.92431" r="2.92431" transform="matrix(-1.19249e-08 -1 -1 1.19249e-08 60.3601 305.56)" fill="#0886C8"/>
<circle cx="2.92431" cy="2.92431" r="2.92431" transform="matrix(-1.19249e-08 -1 -1 1.19249e-08 60.3601 280.703)" fill="#0886C8"/>
<circle cx="2.92431" cy="2.92431" r="2.92431" transform="matrix(-1.19249e-08 -1 -1 1.19249e-08 60.3601 255.846)" fill="#0886C8"/>
<circle cx="2.92431" cy="2.92431" r="2.92431" transform="matrix(-1.19249e-08 -1 -1 1.19249e-08 35.5034 355.273)" fill="#0886C8"/>
<circle cx="2.92431" cy="2.92431" r="2.92431" transform="matrix(-1.19249e-08 -1 -1 1.19249e-08 35.5034 330.416)" fill="#0886C8"/>
<circle cx="2.92431" cy="2.92431" r="2.92431" transform="matrix(-1.19249e-08 -1 -1 1.19249e-08 35.5034 305.56)" fill="#0886C8"/>
<circle cx="2.92431" cy="2.92431" r="2.92431" transform="matrix(-1.19249e-08 -1 -1 1.19249e-08 35.5034 280.703)" fill="#0886C8"/>
<circle cx="2.92431" cy="2.92431" r="2.92431" transform="matrix(-1.19249e-08 -1 -1 1.19249e-08 35.5034 255.846)" fill="#0886C8"/>
<circle cx="2.92431" cy="2.92431" r="2.92431" transform="matrix(-1.19249e-08 -1 -1 1.19249e-08 10.6469 355.273)" fill="#0886C8"/>
<circle cx="2.92431" cy="2.92431" r="2.92431" transform="matrix(-1.19249e-08 -1 -1 1.19249e-08 10.6468 330.416)" fill="#0886C8"/>
<circle cx="2.92431" cy="2.92431" r="2.92431" transform="matrix(-1.19249e-08 -1 -1 1.19249e-08 10.6468 305.56)" fill="#0886C8"/>
<circle cx="2.92431" cy="2.92431" r="2.92431" transform="matrix(-1.19249e-08 -1 -1 1.19249e-08 10.6468 280.703)" fill="#0886C8"/>
<circle cx="2.92431" cy="2.92431" r="2.92431" transform="matrix(-1.19249e-08 -1 -1 1.19249e-08 10.6468 255.846)" fill="#0886C8"/>
<path d="M363.11 37.915L400.911 16L438.688 37.8743L438.665 81.6636L400.777 103.729L363 81.8551L363.11 37.915Z" fill="#0886C8" fill-opacity="0.04"/>
<path d="M1124.75 285.021L1162.55 263.105L1200.33 284.98L1200.3 328.769L1162.41 350.835L1124.64 328.961L1124.75 285.021Z" fill="#0886C8" fill-opacity="0.04"/>
</g>
<defs>
<clipPath id="clip0_60_12">
<rect width="1600" height="400" fill="white"/>
</clipPath>
</defs>
</svg>
